SplineFontDB: 3.0
FontName: MonospaceCustomCharacters
FullName: MonospaceCustomCharacters
FamilyName: MonospaceCustomCharacters
Weight: Regular
Copyright: 
Version: 
ItalicAngle: 0
UnderlinePosition: -174
UnderlineWidth: 184
Ascent: 1556
Descent: 492
InvalidEm: 0
sfntRevision: 0x00012666
LayerCount: 2
Layer: 0 0 "Back" 1
Layer: 1 0 "Fore" 0
XUID: [1021 213 638395274 7595364]
OS2Version: 0
OS2_WeightWidthSlopeOnly: 0
OS2_UseTypoMetrics: 1
CreationTime: 1399723875
ModificationTime: 1456058774
PfmFamily: 17
TTFWeight: 400
TTFWidth: 5
LineGap: 0
VLineGap: 0
Panose: 2 11 6 9 6 8 4 2 2 4
OS2TypoAscent: 1556
OS2TypoAOffset: 0
OS2TypoDescent: -492
OS2TypoDOffset: 0
OS2TypoLinegap: 410
OS2WinAscent: 1901
OS2WinAOffset: 0
OS2WinDescent: 483
OS2WinDOffset: 0
HheadAscent: 1901
HheadAOffset: 0
HheadDescent: -483
HheadDOffset: 0
OS2SubXSize: 1331
OS2SubYSize: 1434
OS2SubXOff: 0
OS2SubYOff: 286
OS2SupXSize: 1331
OS2SupYSize: 1433
OS2SupXOff: 0
OS2SupYOff: 983
OS2StrikeYSize: 102
OS2StrikeYPos: 530
OS2CapHeight: 0
OS2XHeight: 0
OS2Vendor: 'PfEd'
OS2CodePages: e0000097.cfd60000
OS2UnicodeRanges: a00002ff.400079cb.00000020.00000000
MarkAttachClasses: 1
DEI: 91125
LangName: 1033
GaspTable: 2 8 2 65535 3 0
Encoding: UnicodeBmp
UnicodeInterp: none
NameList: AGL For New Fonts
DisplaySize: -48
AntiAlias: 1
FitToEm: 1
WinInfo: 9452 17 7
BeginPrivate: 0
EndPrivate
Grid
-2048 2004.59991455 m 0
 4096 2004.59991455 l 1024
EndSplineSet
TeXData: 1 0 0 631296 315648 210432 572416 -1048576 225792 783286 444596 497025 792723 393216 433062 380633 303038 157286 324010 404750 52429 2506097 1059062 262144
BeginChars: 65550 82

StartChar: uniE9D0
Encoding: 59856 59856 0
Width: 1982
GlyphClass: 2
Flags: W
LayerCount: 2
Back
Fore
SplineSet
-49 1919 m 1
 1184 727 l 1
 -49 -465 l 1
 -49 1919 l 1
EndSplineSet
Validated: 1
EndChar

StartChar: uniE9D1
Encoding: 59857 59857 1
Width: 1982
GlyphClass: 2
Flags: W
LayerCount: 2
Back
Fore
SplineSet
18 1903 m 0
 30 1913 47 1919 63 1919 c 0
 79 1919 94 1913 106 1901 c 2
 1217 768 l 2
 1229 756 1233 741 1233 725 c 0
 1233 709 1227 696 1217 686 c 2
 106 -446 l 2
 94 -458 79 -465 63 -465 c 0
 47 -465 30 -459 18 -449 c 0
 6 -439 0 -424 0 -408 c 0
 0 -392 6 -375 16 -365 c 2
 1087 727 l 1
 16 1819 l 2
 6 1829 0 1844 0 1860 c 0
 0 1876 6 1893 18 1903 c 0
EndSplineSet
Validated: 1
EndChar

StartChar: uniE9D2
Encoding: 59858 59858 2
Width: 1982
GlyphClass: 2
Flags: W
LayerCount: 2
Back
Fore
SplineSet
1253 1919 m 5
 1253 -465 l 5
 18 727 l 5
 1253 1919 l 5
EndSplineSet
Validated: 1
EndChar

StartChar: uniE9D3
Encoding: 59859 59859 3
Width: 1982
GlyphClass: 2
Flags: W
LayerCount: 2
Back
Fore
SplineSet
1214 1903 m 0
 1226 1893 1233 1876 1233 1860 c 0
 1233 1844 1229 1829 1217 1819 c 2
 145 727 l 1
 1217 -365 l 2
 1229 -375 1233 -392 1233 -408 c 0
 1233 -424 1226 -439 1214 -449 c 0
 1202 -459 1187 -465 1171 -465 c 0
 1155 -465 1138 -458 1126 -446 c 2
 16 686 l 2
 6 696 0 709 0 725 c 0
 0 741 6 756 16 768 c 2
 1126 1901 l 2
 1138 1913 1155 1919 1171 1919 c 0
 1187 1919 1202 1913 1214 1903 c 0
EndSplineSet
Validated: 1
EndChar

StartChar: uniE9D4
Encoding: 59860 59860 4
Width: 1230
GlyphClass: 2
Flags: W
VStem: 90 1151<525.437 896.662>
LayerCount: 2
Back
Fore
SplineSet
1241 -479 m 5
 520 -479 90 35 90 711 c 4
 90 1387 520 1905 1241 1905 c 5
 1241 -479 l 5
1251 -477 m 1029
EndSplineSet
Validated: 1
EndChar

StartChar: uniE9D5
Encoding: 59861 59861 5
Width: 1230
GlyphClass: 2
Flags: W
VStem: -2 1151<525.437 896.662>
LayerCount: 2
Back
Fore
SplineSet
-2 -479 m 5
 -2 1905 l 5
 719 1905 1149 1387 1149 711 c 4
 1149 35 719 -479 -2 -479 c 5
-12 -477 m 1029
123 -514 m 1029
EndSplineSet
Validated: 1
EndChar

StartChar: uniE9D6
Encoding: 59862 59862 6
Width: 2048
VWidth: 0
GlyphClass: 2
Flags: W
HStem: 0 700<700 1200> 0 100<100 600> 600 700<100 600> 1200 100<700 1200>
VStem: 0 700<700 1200> 0 100<100 600> 600 700<100 600> 1200 100<700 1200>
LayerCount: 2
Back
Fore
SplineSet
0 1300 m 1x55
 1300 1300 l 1
 1300 0 l 1
 0 0 l 1
 0 1300 l 1x55
700 1200 m 1x99
 700 700 l 1
 1200 700 l 1
 1200 1200 l 1
 700 1200 l 1x99
100 600 m 1x66
 100 100 l 1
 600 100 l 1
 600 600 l 1
 100 600 l 1x66
EndSplineSet
Validated: 1
EndChar

StartChar: uniE9D7
Encoding: 59863 59863 7
Width: 2048
VWidth: 0
GlyphClass: 2
Flags: W
HStem: 0 21G<256 682 979 1407>
VStem: 256 426<0 575> 979 428<0 575>
LayerCount: 2
Back
Fore
SplineSet
821 1528 m 5
 1642 713 l 5
 1407 713 l 5
 1407 0 l 5
 979 0 l 5
 979 575 l 5
 682 575 l 5
 682 0 l 5
 256 0 l 5
 256 713 l 5
 0 713 l 5
 821 1528 l 5
EndSplineSet
Validated: 1
EndChar

StartChar: uniE9D8
Encoding: 59864 59864 8
Width: 2048
VWidth: 0
GlyphClass: 2
Flags: W
HStem: 1905 0
LayerCount: 2
Back
Fore
SplineSet
49 1905 m 5
 1241 1905 l 5
 1241 -479 l 5
 911 -479 880 -153 647 840 c 4
 405 1870 49 1905 49 1905 c 5
EndSplineSet
Validated: 1
EndChar

StartChar: uniE9D9
Encoding: 59865 59865 9
Width: 2048
VWidth: 0
GlyphClass: 2
Flags: W
HStem: 1905 0
LayerCount: 2
Back
Fore
SplineSet
1192 1905 m 5
 1192 1905 836 1870 594 840 c 4
 361 -153 330 -479 0 -479 c 5
 0 1905 l 5
 1192 1905 l 5
EndSplineSet
Validated: 1
EndChar

StartChar: uniE9DA
Encoding: 59866 59866 10
Width: 2048
VWidth: 0
GlyphClass: 2
Flags: W
VStem: 231 777<428.434 1078.69>
LayerCount: 2
Back
Fore
SplineSet
895 1470 m 2
 905 1480 924 1487 940 1487 c 0
 977 1487 1008 1456 1008 1419 c 2
 1008 82 l 2
 1008 45 977 12 940 12 c 0
 926 12 905 21 895 29 c 2
 438 424 l 1
 299 424 l 2
 262 424 231 457 231 494 c 2
 231 1014 l 2
 231 1051 262 1083 299 1083 c 2
 446 1083 l 1
 895 1470 l 2
EndSplineSet
Validated: 1
EndChar

StartChar: uniE9DB
Encoding: 59867 59867 11
Width: 2048
VWidth: 0
GlyphClass: 2
Flags: W
VStem: 379.3 181.999<561.168 930.707>
LayerCount: 2
Back
Fore
SplineSet
561.298828125 744.55859375 m 0
 560.900390625 609.55859375 511.537109375 486.704101562 429.25390625 390.947265625 c 1
 290.543945312 489.357421875 l 1
 345.756835938 561.194335938 379.016601562 649.096679688 379.299804688 745.095703125 c 0
 379.6015625 847.095703125 341.881835938 942.20703125 281.100585938 1016.38769531 c 1
 425.372070312 1107.96191406 l 1
 511.087890625 1011.70800781 561.709960938 883.557617188 561.298828125 744.55859375 c 0
EndSplineSet
Validated: 33
EndChar

StartChar: uniE9DC
Encoding: 59868 59868 12
Width: 2048
VWidth: 0
GlyphClass: 2
Flags: W
VStem: 379.3 181.999<561.168 930.707> 797.245 189.999<485.515 966.019>
LayerCount: 2
Back
Fore
SplineSet
987.244140625 725.299804688 m 0
 986.555664062 492.30078125 899.935546875 282.555664062 768.538085938 147.943359375 c 1
 606.877929688 263.421875 l 1
 722.172851562 363.081054688 796.674804688 532.862304688 797.245117188 725.861328125 c 0
 797.856445312 932.860351562 710.388671875 1113.11914062 581.672851562 1209.5 c 1
 751 1320 l 1
 893.606445312 1186.578125 987.970703125 971.298828125 987.244140625 725.299804688 c 0
561.298828125 744.55859375 m 0
 560.900390625 609.55859375 511.537109375 486.704101562 429.25390625 390.947265625 c 1
 290.543945312 489.357421875 l 1
 345.756835938 561.194335938 379.016601562 649.096679688 379.299804688 745.095703125 c 0
 379.6015625 847.095703125 341.881835938 942.20703125 281.100585938 1016.38769531 c 1
 425.372070312 1107.96191406 l 1
 511.087890625 1011.70800781 561.709960938 883.557617188 561.298828125 744.55859375 c 0
EndSplineSet
Validated: 33
EndChar

StartChar: uniE9DD
Encoding: 59869 59869 13
Width: 2048
VWidth: 0
GlyphClass: 2
Flags: W
VStem: 379.3 181.999<561.168 930.707> 797.245 189.999<485.515 966.019> 1208.26 200.987<423.961 1043.14>
LayerCount: 2
Back
Fore
SplineSet
987.244140625 725.299804688 m 4
 986.555664062 492.30078125 899.935546875 282.555664062 768.538085938 147.943359375 c 5
 606.877929688 263.421875 l 5
 722.172851562 363.081054688 796.674804688 532.862304688 797.245117188 725.861328125 c 4
 797.856445312 932.860351562 710.388671875 1113.11914062 581.672851562 1209.5 c 5
 751 1320 l 5
 893.606445312 1186.578125 987.970703125 971.298828125 987.244140625 725.299804688 c 4
561.298828125 744.55859375 m 4
 560.900390625 609.55859375 511.537109375 486.704101562 429.25390625 390.947265625 c 5
 290.543945312 489.357421875 l 5
 345.756835938 561.194335938 379.016601562 649.096679688 379.299804688 745.095703125 c 4
 379.6015625 847.095703125 341.881835938 942.20703125 281.100585938 1016.38769531 c 5
 425.372070312 1107.96191406 l 5
 511.087890625 1011.70800781 561.709960938 883.557617188 561.298828125 744.55859375 c 4
1409.24804688 726.053710938 m 4
 1408.30566406 407.0546875 1284.45214844 118.418945312 1086.86523438 -79.998046875 c 5
 928.206054688 35.4716796875 l 5
 1096.63964844 181.974609375 1207.39550781 437.6484375 1208.26074219 730.647460938 c 4
 1209.1328125 1025.64550781 1097.89550781 1283.97558594 928.330078125 1431.47753906 c 5
 1089.64550781 1538.00097656 l 5
 1288.05664062 1338.4140625 1410.19921875 1048.05175781 1409.24804688 726.053710938 c 4
EndSplineSet
Validated: 33
EndChar

StartChar: uniE9DE
Encoding: 59870 59870 14
Width: 2048
VWidth: 0
GlyphClass: 2
Flags: W
HStem: -81 432<658.848 917.13> 531 182<610.613 982.562>
VStem: 571.7 433.6<6.14749 263.853>
LayerCount: 2
Back
Fore
SplineSet
571.700195312 135 m 1024,0,-1
1005.29980469 135 m 0,1,-1
 1005.29980469 16.599609375 906.099609375 -81 787.700195312 -81 c 0,4,-1
 669.299804688 -81 571.700195312 16.599609375 571.700195312 135 c 0,7,-1
 571.700195312 253.400390625 669.299804688 351 787.700195312 351 c 0,10,-1
 906.099609375 351 1005.29980469 253.400390625 1005.29980469 135 c 0,1,-1
434 576 m 5,13,-1
 530 662 660 713 799 713 c 4,16,-1
 934 713 1055 664 1151 582 c 5,19,-1
 1053 443 l 5,20,-1
 981 498 893 531 797 531 c 4,23,-1
 695 531 600 493 526 432 c 5,26,-1
 434 576 l 5,13,-1
EndSplineSet
Validated: 1
EndChar

StartChar: uniE9DF
Encoding: 59871 59871 15
Width: 2048
VWidth: 0
GlyphClass: 2
Flags: W
HStem: -81 432<658.848 917.13> 531 182<610.067 982.039> 949 190<573.043 1061.75>
VStem: 571.7 433.6<6.14749 263.853>
LayerCount: 2
Back
Fore
SplineSet
571.700195312 135 m 1024,0,-1
1005.29980469 135 m 0,1,-1
 1005.29980469 16.599609375 906.099609375 -81 787.700195312 -81 c 0,4,-1
 669.299804688 -81 571.700195312 16.599609375 571.700195312 135 c 0,7,-1
 571.700195312 253.400390625 669.299804688 351 787.700195312 351 c 0,10,-1
 906.099609375 351 1005.29980469 253.400390625 1005.29980469 135 c 0,1,-1
815 1139 m 4,13,-1
 1048 1139 1258 1053 1393 922 c 5,16,-1
 1278 760 l 5,17,-1
 1178 875 1008 949 815 949 c 4,20,-1
 608 949 428 861 332 732 c 5,23,-1
 221 901 l 5,24,-1
 354 1044 569 1139 815 1139 c 4,13,-1
797 713 m 4,27,-1
 932 713 1055 664 1151 582 c 5,30,-1
 1053 443 l 5,31,-1
 981 498 893 531 797 531 c 4,34,-1
 695 531 600 493 526 432 c 5,37,-1
 434 576 l 5,38,-1
 530 662 658 713 797 713 c 4,27,-1
EndSplineSet
Validated: 1
EndChar

StartChar: uniE9E0
Encoding: 59872 59872 16
Width: 2048
VWidth: 0
GlyphClass: 2
Flags: W
HStem: -81 432<658.848 917.13> 531 182<610.067 982.039> 949 190<573.043 1061.75> 1360 201<495.657 1117.21>
VStem: 571.7 433.6<6.14749 263.853>
LayerCount: 2
Back
Fore
SplineSet
571.700195312 135 m 1024,0,-1
1005.29980469 135 m 0,1,-1
 1005.29980469 16.599609375 906.099609375 -81 787.700195312 -81 c 0,4,-1
 669.299804688 -81 571.700195312 16.599609375 571.700195312 135 c 0,7,-1
 571.700195312 253.400390625 669.299804688 351 787.700195312 351 c 0,10,-1
 906.099609375 351 1005.29980469 253.400390625 1005.29980469 135 c 0,1,-1
815 1139 m 4,13,-1
 1048 1139 1258 1053 1393 922 c 5,16,-1
 1278 760 l 5,17,-1
 1178 875 1008 949 815 949 c 4,20,-1
 608 949 428 861 332 732 c 5,23,-1
 221 901 l 5,24,-1
 354 1044 569 1139 815 1139 c 4,13,-1
797 713 m 4,27,-1
 932 713 1055 664 1151 582 c 5,30,-1
 1053 443 l 5,31,-1
 981 498 893 531 797 531 c 4,34,-1
 695 531 600 493 526 432 c 5,37,-1
 434 576 l 5,38,-1
 530 662 658 713 797 713 c 4,27,-1
813 1561 m 4,41,-1
 1132 1561 1421 1438 1620 1241 c 5,44,-1
 1505 1082 l 5,45,-1
 1358 1250 1102 1360 809 1360 c 4,48,-1
 514 1360 256 1248 109 1078 c 5,51,-1
 2 1239 l 5,52,-1
 201 1438 491 1561 813 1561 c 4,41,-1
EndSplineSet
Validated: 1
EndChar

StartChar: uniE9E1
Encoding: 59873 59873 17
Width: 1230
GlyphClass: 2
Flags: W
VStem: 90 1151<-479 829.034>
LayerCount: 2
Back
Fore
SplineSet
1241 1905 m 1
 1241 -479 l 1
 90 -479 l 5
 90 631 l 2
 90 1352 520 1905 1241 1905 c 1
EndSplineSet
Validated: 1
EndChar

StartChar: uniE9E2
Encoding: 59874 59874 18
Width: 1230
GlyphClass: 2
Flags: W
VStem: 0 1151<-479 829.034>
LayerCount: 2
Back
Fore
SplineSet
0 1905 m 5
 721 1905 1151 1352 1151 631 c 6
 1151 -479 l 5
 0 -479 l 5
 0 1905 l 5
EndSplineSet
Validated: 1
EndChar

StartChar: uniE9E3
Encoding: 59875 59875 19
Width: 1230
GlyphClass: 2
Flags: W
VStem: 90 1151<596.966 1905>
LayerCount: 2
Back
Fore
SplineSet
1241 -479 m 5
 520 -479 90 74 90 795 c 6
 90 1905 l 5
 1241 1905 l 5
 1241 -479 l 5
EndSplineSet
Validated: 1
EndChar

StartChar: uniE9E4
Encoding: 59876 59876 20
Width: 1230
GlyphClass: 2
Flags: W
VStem: 0 1151<596.966 1905>
LayerCount: 2
Back
Fore
SplineSet
0 -479 m 5
 0 1905 l 5
 1151 1905 l 5
 1151 795 l 6
 1151 74 721 -479 0 -479 c 5
EndSplineSet
Validated: 1
EndChar

StartChar: uniE9E5
Encoding: 59877 59877 21
Width: 1230
VWidth: 0
GlyphClass: 2
Flags: W
HStem: -477 0
LayerCount: 2
Back
Fore
SplineSet
1192 -477 m 5
 0 -477 l 5
 0 1907 l 5
 330 1907 361 1583 594 590 c 4
 836 -440 1192 -477 1192 -477 c 5
EndSplineSet
Validated: 1
EndChar

StartChar: uniE9E6
Encoding: 59878 59878 22
Width: 1230
VWidth: 0
GlyphClass: 2
Flags: W
HStem: -477 0
LayerCount: 2
Back
Fore
SplineSet
47 -477 m 5
 47 -477 403 -440 645 590 c 4
 878 1583 909 1907 1239 1907 c 5
 1239 -477 l 5
 47 -477 l 5
EndSplineSet
Validated: 1
EndChar

StartChar: uniE9E7
Encoding: 59879 59879 23
Width: 1230
VWidth: 0
GlyphClass: 2
Flags: W
HStem: 182 168<488.609 1233> 1206 168<488.609 1233>
VStem: 82 164<596.533 959.467>
LayerCount: 2
Back
Fore
SplineSet
674 350 m 2
 1233 350 l 1
 1233 182 l 1
 680 182 l 2
 350 182 82 448 82 778 c 0
 82 1108 350 1374 680 1374 c 2
 1233 1374 l 1
 1233 1206 l 1
 674 1206 l 2
 438 1206 246 1014 246 778 c 0
 246 542 438 350 674 350 c 2
EndSplineSet
Validated: 1
EndChar

StartChar: uniE9E8
Encoding: 59880 59880 24
Width: 1230
VWidth: 0
GlyphClass: 2
Flags: W
HStem: 182 168<0 1233> 1206 168<0 1233>
LayerCount: 2
Back
Fore
SplineSet
1233 350 m 1
 1233 182 l 1
 0 182 l 1
 0 350 l 1
 1233 350 l 1
1233 1374 m 5
 1233 1206 l 5
 0 1206 l 1
 0 1374 l 1
 1233 1374 l 5
EndSplineSet
Validated: 1
EndChar

StartChar: uniE9E9
Encoding: 59881 59881 25
Width: 1230
VWidth: 0
GlyphClass: 2
Flags: W
HStem: 182 168<-4 740.391> 1206 168<-4 740.391>
VStem: 983 164<596.533 959.467>
LayerCount: 2
Back
Fore
SplineSet
555 350 m 6
 791 350 983 542 983 778 c 4
 983 1014 791 1206 555 1206 c 6
 -4 1206 l 5
 -4 1374 l 5
 551 1374 l 6
 881 1374 1147 1108 1147 778 c 4
 1147 448 881 182 551 182 c 6
 -4 182 l 5
 -4 350 l 5
 555 350 l 6
EndSplineSet
Validated: 1
EndChar

StartChar: uniE9EA
Encoding: 59882 59882 26
Width: 1230
VWidth: 0
GlyphClass: 2
Flags: W
VStem: 82 1151<559.116 996.884>
LayerCount: 2
Back
Fore
SplineSet
1233 182 m 5
 680 182 l 2
 350 182 82 448 82 778 c 0
 82 1108 350 1374 680 1374 c 2
 1233 1374 l 5
 1233 182 l 5
EndSplineSet
Validated: 1
EndChar

StartChar: uniE9EB
Encoding: 59883 59883 27
Width: 1230
VWidth: 0
GlyphClass: 2
Flags: W
HStem: 182 1192<0 1233>
VStem: 0 1233<182 1374>
LayerCount: 2
Back
Fore
SplineSet
1233 182 m 5
 0 182 l 1
 0 1374 l 1
 1233 1374 l 5
 1233 182 l 5
EndSplineSet
Validated: 1
EndChar

StartChar: uniE9EC
Encoding: 59884 59884 28
Width: 1230
VWidth: 0
GlyphClass: 2
Flags: W
VStem: -4 1151<559.116 996.884>
LayerCount: 2
Back
Fore
SplineSet
-4 182 m 5
 -4 1374 l 5
 551 1374 l 2
 881 1374 1147 1108 1147 778 c 0
 1147 448 881 182 551 182 c 2
 -4 182 l 5
EndSplineSet
Validated: 1
EndChar

StartChar: uniE9ED
Encoding: 59885 59885 29
Width: 1982
Flags: W
VStem: 244 418<-414 151.741 530 1880> 1204 279<725.381 948>
LayerCount: 2
Back
Fore
SplineSet
244 1880 m 1
 662 1880 l 1
 662 530 l 1
 846 587 1204 666 1204 801 c 2
 1204 948 l 1
 758 948 l 5
 1343 1761 l 1
 1929 948 l 1
 1483 948 l 1
 1483 666 l 2
 1483 396 895 307 662 127 c 1
 662 -414 l 1
 244 -414 l 1
 244 1880 l 1
EndSplineSet
Validated: 1
EndChar

StartChar: uniE9EE
Encoding: 59886 59886 30
Width: 1982
Flags: W
HStem: 852 133<467 786>
VStem: 285 182<985 1534> 754 172<-86 383> 1214 172<129 598>
LayerCount: 2
Back
Fore
SplineSet
285 1534 m 1
 467 1534 l 1
 467 985 l 1
 786 985 l 1
 786 852 l 1
 285 852 l 1
 285 1534 l 1
754 598 m 1
 958 598 l 1
 1214 129 l 1
 1214 598 l 1
 1386 598 l 1
 1386 -86 l 1
 1184 -86 l 1
 926 383 l 1
 926 -86 l 1
 754 -86 l 1
 754 598 l 1
EndSplineSet
Validated: 1
EndChar

StartChar: uniE9EF
Encoding: 59887 59887 31
Width: 1982
Flags: W
HStem: 143 168<563 780> 489 170<954 1130> 819 152<780 1130> 1130 168<563 1239>
VStem: 387 176<311 1130> 780 174<311 489> 1130 109<659 819>
LayerCount: 2
Back
Fore
SplineSet
563 1298 m 2
 1239 1298 l 1
 1239 1130 l 1
 563 1130 l 1
 563 311 l 1
 780 311 l 1
 780 659 l 1
 1130 659 l 1
 1130 819 l 1
 780 819 l 1
 780 971 l 1
 1239 971 l 1
 1239 526 l 1
 1212 506 1163 489 1130 489 c 2
 954 489 l 1
 954 311 l 2
 954 219 876 143 780 143 c 2
 563 143 l 2
 467 143 387 219 387 311 c 2
 387 1130 l 2
 387 1222 467 1298 563 1298 c 2
EndSplineSet
Validated: 1
EndChar

StartChar: uniE9F0
Encoding: 59888 59888 32
Width: 1982
Flags: W
HStem: 141 168<176 395> 801 170<569 676> 1130 168<0 676>
VStem: 0 176<309 971> 395 174<309 801> 676 174<971 1130>
LayerCount: 2
Back
Fore
SplineSet
0 1298 m 1
 676 1298 l 2
 772 1298 850 1222 850 1130 c 2
 850 971 l 2
 850 879 772 801 676 801 c 2
 569 801 l 1
 569 309 l 2
 569 217 491 141 395 141 c 2
 176 141 l 2
 80 141 2 217 2 309 c 2
 2 526 l 2
 0 526 l 2
 0 971 l 1
 176 971 l 1
 176 309 l 1
 395 309 l 1
 395 971 l 1
 676 971 l 1
 676 1130 l 1
 0 1130 l 1
 0 1298 l 1
EndSplineSet
Validated: 1
EndChar

StartChar: uniE9F1
Encoding: 59889 59889 33
Width: 1982
Flags: W
HStem: -18 301<524.634 675.372> 657 150<522.105 677.895> 1255 152<497.467 703.694>
VStem: 57 426<351.74 620.25> 291 155<807 1201.94> 717 428<351.74 620.25> 756 155<807 1201.94>
LayerCount: 2
Back
Fore
SplineSet
600 1407 m 4xe8
 909 1407 911 1032 911 1032 c 5
 911 807 l 5xea
 1145 807 l 5
 1145 582 l 5
 1145 582 1143 -18 600 -18 c 4
 57 -18 57 582 57 582 c 5
 57 807 l 5xf4
 291 807 l 5
 291 1032 l 5
 291 1032 291 1407 600 1407 c 4xe8
600 1255 m 4
 448 1255 446 1114 446 829 c 4
 446 821 446 815 446 807 c 5
 756 807 l 5
 756 1106 756 1255 600 1255 c 4
600 657 m 4
 522 657 483 565 483 471 c 4
 483 377 522 283 600 283 c 4
 678 283 717 377 717 471 c 4xf4
 717 565 678 657 600 657 c 4
EndSplineSet
Validated: 1
EndChar

StartChar: uniE9F2
Encoding: 59890 59890 34
Width: 2048
VWidth: 0
Flags: W
HStem: 473.283 332.104<864.46 1118.65> 842.292 812.77<795.754 1098.37>
VStem: 825.501 332.104<512.242 766.428>
LayerCount: 2
Back
Fore
SplineSet
1108.92382812 804.813476562 m 4
 1075.6640625 828.40625 1035.09277344 842.291992188 991.204101562 842.291992188 c 4
 958.866210938 842.291992188 928.310546875 834.735351562 901.154296875 821.340820312 c 5
 861.607421875 902.461914062 720.151367188 1232.55859375 717.38671875 1389.96777344 c 4
 714.458007812 1556.01953125 734.303710938 1655.06152344 857.204101562 1655.06152344 c 4
 1250.4609375 1655.06152344 1343.70605469 1381.22363281 1334.9609375 1244.29394531 c 4
 1326.19628906 1107.38476562 1276.67578125 1002.50683594 1206.77734375 918.02734375 c 4
 1165.73535156 868.4453125 1130.83691406 829.041015625 1108.92382812 804.813476562 c 4
1780.33984375 518.01171875 m 4
 1928.71777344 443.444335938 2007.21777344 379.833007812 1950.09863281 271.022460938 c 4
 1767.31445312 -77.1982421875 1481.53710938 -32.470703125 1364.37109375 38.8818359375 c 4
 1247.20410156 110.254882812 1177.32714844 202.844726562 1135.03515625 304.016601562 c 4
 1107.34667969 370.166992188 1087.23535156 423.90625 1076.62695312 453.212890625 c 4
 1141.13867188 483.01171875 1187.42382812 545.516601562 1194.22265625 619.469726562 c 4
 1288.8203125 616.315429688 1641.09667969 588.012695312 1780.33984375 518.01171875 c 4
787.28515625 638.352539062 m 4
 787.28515625 565.340820312 825.706054688 501.3203125 883.397460938 465.295898438 c 5
 847.189453125 410.696289062 611.341796875 102.47265625 468.145507812 20.01953125 c 4
 324.211914062 -62.841796875 227.915039062 -93.3779296875 168.482421875 14.2041015625 c 4
 -21.7158203125 358.431640625 172.865234375 572.426757812 296.932617188 631 c 4
 421 689.572265625 536.752929688 696.965820312 644.499023438 676.62890625 c 4
 705.426757812 665.119140625 755.479492188 654.01953125 787.490234375 646.5234375 c 4
 787.387695312 643.8203125 787.28515625 641.096679688 787.28515625 638.352539062 c 4
825.500976562 639.334960938 m 4
 825.500976562 750.036132812 880.8515625 805.38671875 991.552734375 805.38671875 c 4
 1102.25390625 805.38671875 1157.60449219 750.036132812 1157.60449219 639.334960938 c 4
 1157.60449219 528.633789062 1102.25390625 473.283203125 991.552734375 473.283203125 c 4
 880.8515625 473.283203125 825.500976562 528.633789062 825.500976562 639.334960938 c 4
EndSplineSet
Validated: 33
EndChar

StartChar: uniE9F3
Encoding: 59891 59891 35
Width: 1230
Flags: W
HStem: -311 163.84<1099.19 1160> 1573.16 163.84<1100.75 1160>
VStem: 806.761 163.84<218.951 1183.63> 1093.48 66.5195<317.468 1108.03>
LayerCount: 2
Back
Fore
SplineSet
1146.36035156 1450.28027344 m 4
 1150.58007812 1450.28027344 1155.53613281 1450.28027344 1160 1450.28027344 c 6
 1160 -24.2802734375 l 6
 1155.53613281 -24.2802734375 1150.58007812 -24.2802734375 1146.36035156 -24.2802734375 c 4
 1084.83886719 -24.2802734375 1093.3984375 343.786132812 1093.48046875 713 c 0
 1093.5625 1081.06640625 1085.00292969 1450.28027344 1146.36035156 1450.28027344 c 4
970.600585938 713 m 0
 970.600585938 322.978515625 1063.2109375 -61.83984375 1118.50683594 -147.16015625 c 2
 1160 -147.16015625 l 5
 1160 -311 l 5
 1093.48046875 -311 l 2
 875.41015625 -311 806.760742188 487.1875 806.760742188 713 c 0
 806.760742188 840.590820312 863.6953125 1737 1093.48046875 1737 c 2
 1160 1737 l 5
 1160 1573.16015625 l 5
 1120.18652344 1573.16015625 l 2
 1064.64453125 1482.22851562 970.600585938 1077.29785156 970.600585938 713 c 0
EndSplineSet
Validated: 33
EndChar

StartChar: uniE9F4
Encoding: 59892 59892 36
Width: 1230
Flags: W
HStem: -311 163.84<1099.19 1230> 1573.16 163.84<1100.75 1230>
VStem: 806.761 163.84<218.951 1183.63>
LayerCount: 2
Back
Fore
SplineSet
970.600585938 713 m 4
 970.600585938 322.978515625 1063.2109375 -61.83984375 1118.50683594 -147.16015625 c 6
 1230 -147.16015625 l 5
 1230 -311 l 5
 1093.48046875 -311 l 6
 875.41015625 -311 806.760742188 487.1875 806.760742188 713 c 4
 806.760742188 840.590820312 863.6953125 1737 1093.48046875 1737 c 6
 1230 1737 l 5
 1230 1573.16015625 l 5
 1120.18652344 1573.16015625 l 6
 1064.64453125 1482.22851562 970.600585938 1077.29785156 970.600585938 713 c 4
EndSplineSet
Validated: 1
EndChar

StartChar: uniE9F5
Encoding: 59893 59893 37
Width: 1230
VWidth: 0
Flags: W
HStem: -312 164<70 1160> 1572 164<70 1160>
VStem: 70 1090<-311 -148 -24 1449 1573 1736>
LayerCount: 2
Back
Fore
SplineSet
1160 1450 m 5
 1160 -24 l 5
 924 -24 205 -25 70 -25 c 6
 70 1449 l 6
 205 1449 924 1450 1160 1450 c 5
70 -312 m 5
 70 -148 l 5
 1160 -147 l 5
 1160 -311 l 5
 70 -312 l 5
70 1736 m 5
 1160 1737 l 5
 1160 1573 l 5
 70 1572 l 5
 70 1736 l 5
EndSplineSet
Validated: 1
EndChar

StartChar: uniE9F6
Encoding: 59894 59894 38
Width: 1230
VWidth: 0
Flags: W
HStem: -311 164<70 1160> 1573 164<70 1160>
LayerCount: 2
Back
Fore
SplineSet
70 -311 m 1
 70 -147 l 1
 1160 -147 l 5
 1160 -311 l 5
 70 -311 l 1
70 1737 m 1
 1160 1737 l 5
 1160 1573 l 5
 70 1573 l 1
 70 1737 l 1
EndSplineSet
Validated: 1
EndChar

StartChar: uniE9F7
Encoding: 59895 59895 39
Width: 1230
VWidth: 0
Flags: W
HStem: -311 163.84<0 293.109> 1573.16 163.84<0 289.587>
VStem: 0 443.72<-311 -147.16 1573.16 1737> 0 34.2012<378.396 1047.1> 157 163.84<236.366 1207.54> 402.76 368.64<383.848 1043.82> 435.691 335.708<381.708 706.527 719.617 1044.25>
LayerCount: 2
Back
Fore
SplineSet
771.399414062 917.799804688 m 2xc4
 771.399414062 508.159179688 l 2xc4
 771.399414062 395.02734375 679.731445312 303.359375 566.599609375 303.359375 c 2
 435.69140625 303.359375 l 2xc2
 416.112304688 433.038085938 402.759765625 575.825195312 402.759765625 712.958984375 c 0
 402.759765625 855.008789062 415.088867188 996.15625 433.397460938 1122.55859375 c 2
 566.599609375 1122.55859375 l 2
 679.731445312 1122.59960938 771.399414062 1030.93164062 771.399414062 917.799804688 c 2xc4
443.719726562 1737 m 1xe0
 443.719726562 1520.52636719 l 2xe0
 389.325195312 1380.07421875 320.83984375 1048.54394531 320.83984375 713 c 0xc8
 320.83984375 402.5234375 389.161132812 62.80078125 443.719726562 -87.1533203125 c 2
 443.719726562 -311 l 1
 0 -311 l 5
 0 -147.16015625 l 5xe0
 293.109375 -147.16015625 l 1
 187.432617188 117.646484375 157 619.857421875 157 713 c 0xc8
 157 926.278320312 183.869140625 1166.22265625 230.727539062 1371.22753906 c 0
 250.306640625 1456.95605469 270.008789062 1522.4921875 289.586914062 1573.16015625 c 2
 0 1573.16015625 l 5
 0 1737 l 5
 443.719726562 1737 l 1xe0
34.201171875 713 m 4xd0
 34.1201171875 343.786132812 95.5595703125 -24.2802734375 157.08203125 -24.2802734375 c 1
 129.474609375 -24.2802734375 75.1611328125 -24.2802734375 0 -24.2802734375 c 6
 0 1450.28027344 l 6
 75.1611328125 1450.28027344 129.474609375 1450.28027344 157.08203125 1450.28027344 c 1
 95.7236328125 1450.28027344 34.283203125 1081.06640625 34.201171875 713 c 4xd0
EndSplineSet
Validated: 33
EndChar

StartChar: uniE9F8
Encoding: 59896 59896 40
Width: 1230
VWidth: 0
Flags: W
HStem: -311 163.84<0 293.109> 1573.16 163.84<0 289.587>
VStem: 0 443.72<-311 -147.16 1573.16 1737> 157 163.84<236.366 1207.54> 402.76 368.64<383.848 1043.82> 435.691 335.708<381.708 706.527 719.617 1044.25>
LayerCount: 2
Back
Fore
SplineSet
771.399414062 917.799804688 m 2xc8
 771.399414062 508.159179688 l 2xc8
 771.399414062 395.02734375 679.731445312 303.359375 566.599609375 303.359375 c 2
 435.69140625 303.359375 l 2xc4
 416.112304688 433.038085938 402.759765625 575.825195312 402.759765625 712.958984375 c 0
 402.759765625 855.008789062 415.088867188 996.15625 433.397460938 1122.55859375 c 2
 566.599609375 1122.55859375 l 2
 679.731445312 1122.59960938 771.399414062 1030.93164062 771.399414062 917.799804688 c 2xc8
443.719726562 1737 m 1xe0
 443.719726562 1520.52636719 l 2xe0
 389.325195312 1380.07421875 320.83984375 1048.54394531 320.83984375 713 c 0xd0
 320.83984375 402.5234375 389.161132812 62.80078125 443.719726562 -87.1533203125 c 2
 443.719726562 -311 l 1
 0 -311 l 1
 0 -147.16015625 l 1xe0
 293.109375 -147.16015625 l 1
 187.432617188 117.646484375 157 619.857421875 157 713 c 0xd0
 157 926.278320312 183.869140625 1166.22265625 230.727539062 1371.22753906 c 0
 250.306640625 1456.95605469 270.008789062 1522.4921875 289.586914062 1573.16015625 c 2
 0 1573.16015625 l 1
 0 1737 l 1
 443.719726562 1737 l 1xe0
EndSplineSet
Validated: 33
EndChar

StartChar: uniE9F9
Encoding: 59897 59897 42
Width: 1230
VWidth: 0
Flags: W
HStem: -477.938 100.938<1026.18 1191.22> 1807 100<0 132.192>
LayerCount: 2
Back
Fore
SplineSet
0 1907 m 1
 330 1907 361 1583 594 590 c 0
 836 -440 1121.06640625 -377 1192 -377 c 1
 1192 -377 1191.21875 -477.03125 1191.21875 -477.03125 c 2
 1189.05957031 -477.150390625 1181.625 -477.782226562 1170.0625 -477.9375 c 0
 1148.81054688 -478.221679688 1114.59765625 -476.866210938 1078.25 -467.71875 c 0
 1020.09375 -453.083007812 951.827148438 -417.396484375 885.625 -349.625 c 0
 753.220703125 -214.08203125 619.759765625 43.171875 496.65625 567.125 c 1
 496.65625 567.125 496.65625 567.15625 496.65625 567.15625 c 1
 379.829101562 1065.05078125 312.061523438 1395.91210938 239.9375 1585.28125 c 0
 203.875 1679.96582031 167.689453125 1735.89550781 133.78125 1765.28125 c 0
 99.873046875 1794.66699219 66.13671875 1807 0 1807 c 1
 0 1807 0 1907 0 1907 c 1
EndSplineSet
Validated: 33
EndChar

StartChar: uniE9FA
Encoding: 59898 59898 43
Width: 1230
VWidth: 0
Flags: W
HStem: -477.031 100.031<38.7812 203.817> 1807 100<1097.81 1230>
LayerCount: 2
Back
Fore
SplineSet
1230 1907 m 5
 1230 1907 1230 1807 1230 1807 c 5
 1163.86328125 1807 1130.12695312 1794.66699219 1096.21875 1765.28125 c 4
 1062.31054688 1735.89550781 1026.125 1679.96582031 990.0625 1585.28125 c 4
 917.938476562 1395.91210938 850.170898438 1065.05078125 733.34375 567.15625 c 5
 733.34375 567.15625 733.34375 567.125 733.34375 567.125 c 5
 610.240234375 43.171875 476.779296875 -214.08203125 344.375 -349.625 c 4
 278.172851562 -417.396484375 209.90625 -453.083007812 151.75 -467.71875 c 4
 115.40234375 -476.866210938 81.189453125 -478.221679688 59.9375 -477.9375 c 4
 48.375 -477.782226562 40.9404296875 -477.149414062 38.78125 -477.03125 c 6
 38.78125 -477.03125 38 -377 38 -377 c 5
 108.93359375 -377 394 -440 636 590 c 4
 869 1583 900 1907 1230 1907 c 5
EndSplineSet
Validated: 33
EndChar

StartChar: uniE9FB
Encoding: 59899 59899 44
Width: 1230
VWidth: 0
HStem: 1443.83 269.275<238.4 305.792 926.901 987.872 1441.23 1498.71>
VStem: 306.378 614.689<886.326 897.996 1029.86 1443.83>
LayerCount: 2
Back
Fore
SplineSet
1177.79589844 1901.27832031 m 1
 1177.78320312 1901.28125 l 1
 1210.75 1868.31542969 l 1
 1406.796875 1671.1015625 l 1
 1441.22265625 1719.82128906 l 1
 2188.06835938 1713.11132812 l 1
 2234.74707031 1666.43359375 l 1
 2234.74707031 1493.14160156 l 1
 1910.91894531 1164.0625 l 1
 2331.01953125 741.334960938 l 1
 2363.98535156 708.369140625 l 1
 2331.01953125 675.40234375 l 1
 1217.45996094 -444.8671875 l 1
 1184.20117188 -478.125 l 1
 1151.23535156 -444.57421875 l 1
 738.427734375 -27.099609375 l 1
 580.889648438 -187.262695312 l 1
 374.33984375 -187.262695312 l 1
 307.532226562 -120.455078125 l 1
 306.954101562 409.630859375 l 1
 30.970703125 688.822265625 l 1
 -1.7041015625 721.7890625 l 1
 31.26171875 754.754882812 l 1
 306.370117188 1029.86328125 l 1
 305.791992188 1449.08886719 l 1
 238.400390625 1450.546875 l 1
 187.638671875 1499.8515625 l 1
 187.638671875 1679.85253906 l 1
 234.31640625 1726.53027344 l 1
 987.872070312 1713.11035156 l 1
 988.75 1712.23339844 l 1
 1144.83007812 1868.3125 l 1
 1177.79589844 1901.27832031 l 1
1177.79589844 1769.41308594 m 1
 1047.68066406 1639.29882812 l 1
 1047.68066406 1499.84863281 l 1
 993.709960938 1443.83496094 l 1
 926.901367188 1443.83496094 l 1
 921.067382812 886.326171875 l 1
 1500.16503906 1445.29394531 l 1
 1498.70605469 1446.4609375 l 1
 1441.234375 1446.4609375 l 1
 1394.55664062 1506.55859375 l 1
 1394.55664062 1551.19433594 l 1
 1177.79589844 1769.41308594 l 1
1845.58203125 1097.54394531 m 1
 804.081054688 39.4130859375 l 1
 1184.50585938 -345.38671875 l 1
 2232.1328125 708.658203125 l 1
 1845.58203125 1097.54394531 l 1
306.377929688 897.99609375 m 1
 306.375976562 897.99609375 l 1
 129.875 721.494140625 l 1
 306.666992188 542.368164062 l 1
 306.377929688 897.99609375 l 1
EndSplineSet
Validated: 5
EndChar

StartChar: uniE9FC
Encoding: 59900 59900 45
Width: 1230
VWidth: 0
HStem: -134.375 597.667<1057.43 1686.05>
LayerCount: 2
Back
Fore
SplineSet
2157.51171875 1658.625 m 2
 2244.31542969 1658.625 2314.66699219 1591.73730469 2314.66699219 1509.20800781 c 2
 2314.66699219 15.0419921875 l 2
 2314.66699219 -67.4873046875 2244.31542969 -134.375 2157.51171875 -134.375 c 2
 271.654296875 -134.375 l 2
 184.8515625 -134.375 114.5 -67.4873046875 114.5 15.0419921875 c 2
 114.5 1509.20800781 l 2
 114.5 1591.73730469 184.8515625 1658.625 271.654296875 1658.625 c 2
 2157.51171875 1658.625 l 2
428.809570312 612.708007812 m 1
 585.963867188 463.291992188 l 1
 1057.42871094 911.541992188 l 1
 585.963867188 1359.79199219 l 1
 428.809570312 1210.375 l 1
 743.119140625 911.541992188 l 1
 428.809570312 612.708007812 l 1
1686.04785156 463.291992188 m 1
 1686.04785156 612.708007812 l 1
 1057.42871094 612.708007812 l 1
 1057.42871094 463.291992188 l 1
 1686.04785156 463.291992188 l 1
EndSplineSet
Validated: 1
EndChar

StartChar: uniEA00
Encoding: 59904 59904 46
Width: 2048
Flags: W
HStem: 0 21G<386.5 476 1572 1661.5> 1024 128<2.7356 253.264 1410.74 1661.26> 1408 128<669.701 997.222> 1664 256<770.736 893.264>
VStem: 0 2048<252.527 643.473> 0 256<1026.74 1149.26> 384 128<942.282 1250.3> 768 128<1666.74 1917.26> 1408 256<1026.74 1149.26>
LayerCount: 2
Back
Fore
SplineSet
896 1728 m 2xf1
 896 1691 869 1664 832 1664 c 0
 795 1664 768 1691 768 1728 c 2
 768 1856 l 2
 768 1893 795 1920 832 1920 c 0
 869 1920 896 1893 896 1856 c 2
 896 1728 l 2xf1
1328 1496 m 2
 1299 1467 1269 1467 1240 1496 c 0
 1211 1525 1211 1555 1240 1584 c 2
 1328 1676 l 2
 1360 1705 1391 1705 1420 1676 c 0
 1449 1647 1449 1616 1420 1584 c 2
 1328 1496 l 2
64 1024 m 2
 27 1024 0 1051 0 1088 c 0
 0 1125 27 1152 64 1152 c 2
 192 1152 l 2
 229 1152 256 1125 256 1088 c 0xf4
 256 1051 229 1024 192 1024 c 2
 64 1024 l 2
1472 1024 m 2
 1435 1024 1408 1051 1408 1088 c 0
 1408 1125 1435 1152 1472 1152 c 2
 1600 1152 l 2
 1637 1152 1664 1125 1664 1088 c 0xf080
 1664 1051 1637 1024 1600 1024 c 2
 1472 1024 l 2
336 1496 m 2
 244 1584 l 2
 215 1616 215 1647 244 1676 c 0
 273 1705 304 1705 336 1676 c 2
 424 1584 l 2
 453 1555 453 1525 424 1496 c 0
 395 1467 365 1467 336 1496 c 2
1600 896 m 0
 1723 896 1828 852 1916 764 c 0
 2004 676 2048 571 2048 448 c 0
 2048 325 2004 220 1916 132 c 0
 1828 44 1723 0 1600 0 c 0
 1544 0 1491 9 1440 28 c 1
 1320 -76 1181 -128 1024 -128 c 0
 867 -128 728 -76 608 28 c 1
 557 9 504 0 448 0 c 0
 325 0 220 44 132 132 c 0
 44 220 0 325 0 448 c 0xf8
 0 568 42 671 126 758 c 0
 210 845 312 891 432 896 c 1
 400 957 384 1021 384 1088 c 0xf2
 384 1211 428 1316 516 1404 c 0
 604 1492 709 1536 832 1536 c 0
 955 1536 1059 1493 1146 1408 c 0
 1233 1323 1277 1219 1280 1096 c 1
 1384 1051 1469 983 1536 892 c 1
 1557 895 1579 896 1600 896 c 0
1024 1152 m 0
 1061 1152 1103 1148 1148 1140 c 1
 1135 1217 1099 1281 1040 1332 c 0
 981 1383 912 1408 832 1408 c 0
 744 1408 669 1377 606 1314 c 0
 543 1251 512 1176 512 1088 c 0xf2
 512 1037 525 988 552 940 c 1
 677 1081 835 1152 1024 1152 c 0
EndSplineSet
Validated: 33
EndChar

StartChar: uniEA01
Encoding: 59905 59905 47
Width: 2048
Flags: W
HStem: 0 896<252.527 511.015>
VStem: 0 2048<252.527 643.473>
LayerCount: 2
Back
Fore
SplineSet
1740 872 m 1
 1831 843 1905 789 1962 712 c 0
 2019 635 2048 547 2048 448 c 0
 2048 325 2004 220 1916 132 c 0
 1828 44 1723 0 1600 0 c 0
 1544 0 1491 9 1440 28 c 1
 1320 -76 1181 -128 1024 -128 c 0
 867 -128 728 -76 608 28 c 1
 557 9 504 0 448 0 c 0
 325 0 220 44 132 132 c 0
 44 220 0 325 0 448 c 0
 0 571 44 676 132 764 c 0
 220 852 325 896 448 896 c 0
 469 896 491 895 512 892 c 1
 619 1039 763 1124 944 1148 c 1
 920 1231 919 1317 942 1408 c 0
 965 1499 1008 1576 1072 1640 c 0
 1125 1693 1189 1733 1264 1760 c 0
 1291 1771 1313 1766 1332 1746 c 0
 1351 1726 1356 1704 1348 1680 c 0
 1321 1608 1316 1537 1332 1466 c 0
 1348 1395 1382 1333 1434 1280 c 0
 1486 1227 1548 1192 1620 1176 c 0
 1692 1160 1764 1165 1836 1192 c 0
 1860 1200 1882 1195 1902 1176 c 0
 1922 1157 1927 1135 1916 1108 c 0
 1889 1033 1849 969 1796 916 c 0
 1785 905 1767 891 1740 872 c 1
1164 1552 m 0
 1111 1499 1076 1435 1060 1360 c 0
 1044 1285 1049 1215 1076 1148 c 1
 1260 1135 1409 1055 1524 908 c 1
 1612 929 1683 973 1736 1040 c 1
 1584 1032 1453 1082 1344 1190 c 0
 1235 1298 1185 1428 1196 1580 c 1
 1185 1572 1175 1563 1164 1552 c 0
EndSplineSet
Validated: 33
EndChar

StartChar: uniEA02
Encoding: 59906 59906 48
Width: 2048
Flags: W
HStem: 256 1280<789.171 1258.83>
VStem: 0 2048<636.527 1027.47>
LayerCount: 2
Back
Fore
SplineSet
1600 1280 m 0
 1723 1280 1828 1236 1916 1148 c 0
 2004 1060 2048 955 2048 832 c 0
 2048 709 2004 604 1916 516 c 0
 1828 428 1723 384 1600 384 c 0
 1544 384 1491 393 1440 412 c 1
 1320 308 1181 256 1024 256 c 0
 867 256 728 308 608 412 c 1
 557 393 504 384 448 384 c 0
 325 384 220 428 132 516 c 0
 44 604 0 709 0 832 c 0
 0 955 44 1060 132 1148 c 0
 220 1236 325 1280 448 1280 c 0
 469 1280 491 1279 512 1276 c 1
 571 1359 645 1423 736 1468 c 0
 827 1513 923 1536 1024 1536 c 0
 1125 1536 1221 1513 1312 1468 c 0
 1403 1423 1477 1359 1536 1276 c 1
 1557 1279 1579 1280 1600 1280 c 0
EndSplineSet
Validated: 1
EndChar

StartChar: uniEA03
Encoding: 59907 59907 49
Width: 2048
Flags: W
HStem: 0 21G<774.667 788>
VStem: 0 2048<1020.53 1411.47>
LayerCount: 2
Back
Fore
SplineSet
1600 1664 m 0
 1723 1664 1828 1620 1916 1532 c 0
 2004 1444 2048 1339 2048 1216 c 0
 2048 1093 2004 988 1916 900 c 0
 1828 812 1723 768 1600 768 c 0
 1544 768 1491 777 1440 796 c 1
 1336 705 1212 655 1068 644 c 1
 1024 512 l 1
 1152 384 l 1
 768 0 l 1
 896 384 l 1
 768 512 l 1
 908 652 l 1
 793 673 693 721 608 796 c 1
 557 777 504 768 448 768 c 0
 325 768 220 812 132 900 c 0
 44 988 0 1093 0 1216 c 0
 0 1339 44 1444 132 1532 c 0
 220 1620 325 1664 448 1664 c 0
 469 1664 491 1663 512 1660 c 1
 571 1743 645 1807 736 1852 c 0
 827 1897 923 1920 1024 1920 c 0
 1125 1920 1221 1897 1312 1852 c 0
 1403 1807 1477 1743 1536 1660 c 1
 1557 1663 1579 1664 1600 1664 c 0
EndSplineSet
Validated: 1
EndChar

StartChar: uniEA04
Encoding: 59908 59908 50
Width: 2048
Flags: W
HStem: 0 21G<1006.5 1041.5> 512 1280<789.171 1258.83>
VStem: 0 2048<892.527 1283.47> 896 256<32.3608 248.543>
LayerCount: 2
Back
Fore
SplineSet
1600 1536 m 0xe0
 1723 1536 1828 1492 1916 1404 c 0
 2004 1316 2048 1211 2048 1088 c 0
 2048 965 2004 860 1916 772 c 0
 1828 684 1723 640 1600 640 c 0
 1544 640 1491 649 1440 668 c 1
 1320 564 1181 512 1024 512 c 0
 867 512 728 564 608 668 c 1
 557 649 504 640 448 640 c 0
 325 640 220 684 132 772 c 0
 44 860 0 965 0 1088 c 0
 0 1211 44 1316 132 1404 c 0
 220 1492 325 1536 448 1536 c 0
 469 1536 491 1535 512 1532 c 1
 571 1615 645 1679 736 1724 c 0
 827 1769 923 1792 1024 1792 c 0
 1125 1792 1221 1769 1312 1724 c 0
 1403 1679 1477 1615 1536 1532 c 1
 1557 1535 1579 1536 1600 1536 c 0xe0
896 128 m 0xd0
 896 176 939 261 1024 384 c 1
 1056 336 l 2
 1077 304 1099 267 1120 224 c 0
 1141 181 1152 149 1152 128 c 0
 1152 93 1139 63 1114 38 c 0
 1089 13 1059 0 1024 0 c 0
 989 0 959 13 934 38 c 0
 909 63 896 93 896 128 c 0xd0
EndSplineSet
Validated: 1
EndChar

StartChar: uniEA05
Encoding: 59909 59909 51
Width: 2048
Flags: W
HStem: 0 21G<1518.5 1553.5> 640 1280<789.171 1258.83>
VStem: 0 2048<1020.53 1411.47> 384 256<288.361 504.543> 900 256<-95.6392 120.543> 1408 256<32.3608 248.543>
LayerCount: 2
Back
Fore
SplineSet
1600 1664 m 0xe0
 1723 1664 1828 1620 1916 1532 c 0
 2004 1444 2048 1339 2048 1216 c 0
 2048 1093 2004 988 1916 900 c 0
 1828 812 1723 768 1600 768 c 0
 1544 768 1491 777 1440 796 c 1
 1320 692 1181 640 1024 640 c 0
 867 640 728 692 608 796 c 1
 557 777 504 768 448 768 c 0
 325 768 220 812 132 900 c 0
 44 988 0 1093 0 1216 c 0
 0 1339 44 1444 132 1532 c 0
 220 1620 325 1664 448 1664 c 0
 469 1664 491 1663 512 1660 c 1
 571 1743 645 1807 736 1852 c 0
 827 1897 923 1920 1024 1920 c 0
 1125 1920 1221 1897 1312 1852 c 0
 1403 1807 1477 1743 1536 1660 c 1
 1557 1663 1579 1664 1600 1664 c 0xe0
900 0 m 0xc8
 900 48 943 133 1028 256 c 1
 1060 208 l 2
 1081 176 1103 139 1124 96 c 0
 1145 53 1156 21 1156 0 c 0
 1156 -35 1143 -65 1118 -90 c 0
 1093 -115 1063 -128 1028 -128 c 0
 993 -128 963 -115 938 -90 c 0
 913 -65 900 -35 900 0 c 0xc8
1408 128 m 0xc4
 1408 176 1451 261 1536 384 c 1
 1568 336 l 2
 1589 304 1611 267 1632 224 c 0
 1653 181 1664 149 1664 128 c 0
 1664 93 1651 63 1626 38 c 0
 1601 13 1571 0 1536 0 c 0
 1501 0 1471 13 1446 38 c 0
 1421 63 1408 93 1408 128 c 0xc4
384 384 m 0xd0
 384 432 427 517 512 640 c 1
 544 592 l 2
 565 560 587 523 608 480 c 0
 629 437 640 405 640 384 c 0
 640 349 627 319 602 294 c 0
 577 269 547 256 512 256 c 0
 477 256 447 269 422 294 c 0
 397 319 384 349 384 384 c 0xd0
EndSplineSet
Validated: 1
EndChar

StartChar: uniEA06
Encoding: 59910 59910 52
Width: 2048
Flags: W
HStem: 384 128<2.7356 637.264> 640 128<2.7356 381.264> 896 128<130.736 509.264>
VStem: 556 1492<673.897 1039.05>
CounterMasks: 1 e0
LayerCount: 2
Back
Fore
SplineSet
1668 1256 m 1
 1775 1251 1865 1209 1938 1132 c 0
 2011 1055 2048 963 2048 856 c 0
 2048 747 2009 653 1932 576 c 0
 1855 499 1760 460 1648 460 c 0
 1627 460 1604 461 1580 464 c 1
 1495 408 1402 380 1302 380 c 0
 1202 380 1109 408 1024 464 c 1
 1000 461 976 460 952 460 c 0
 843 460 749 499 672 576 c 0
 595 653 556 747 556 856 c 0
 556 963 593 1055 666 1132 c 0
 739 1209 829 1251 936 1256 c 1
 1037 1360 1159 1412 1302 1412 c 0
 1445 1412 1567 1360 1668 1256 c 1
576 512 m 2
 613 512 640 485 640 448 c 0
 640 411 613 384 576 384 c 2
 64 384 l 2
 27 384 0 411 0 448 c 0
 0 485 27 512 64 512 c 2
 576 512 l 2
64 640 m 2
 27 640 0 667 0 704 c 0
 0 741 27 768 64 768 c 2
 320 768 l 2
 357 768 384 741 384 704 c 0
 384 667 357 640 320 640 c 2
 64 640 l 2
192 896 m 2
 155 896 128 923 128 960 c 0
 128 997 155 1024 192 1024 c 2
 448 1024 l 2
 485 1024 512 997 512 960 c 0
 512 923 485 896 448 896 c 2
 192 896 l 2
EndSplineSet
Validated: 1
EndChar

StartChar: uniEA0E
Encoding: 59918 59918 53
Width: 2048
Flags: W
HStem: 256 128<706.736 1341.26> 512 128<578.736 1469.26> 1024 128<861.294 1186.71> 1280 256<962.736 1085.26>
VStem: 584 128<768 881.451> 960 128<1282.74 1533.26> 1336 128<768 881.451>
CounterMasks: 1 0e
LayerCount: 2
Back
Fore
SplineSet
712 768 m 1
 584 768 l 1
 600 877 649 969 732 1042 c 0
 815 1115 912 1152 1024 1152 c 0
 1136 1152 1233 1115 1316 1042 c 0
 1399 969 1448 877 1464 768 c 1
 1336 768 l 1
 1323 843 1287 904 1228 952 c 0
 1169 1000 1101 1024 1024 1024 c 0
 947 1024 879 1000 820 952 c 0
 761 904 725 843 712 768 c 1
1088 1344 m 2
 1088 1307 1061 1280 1024 1280 c 0
 987 1280 960 1307 960 1344 c 2
 960 1472 l 2
 960 1509 987 1536 1024 1536 c 0
 1061 1536 1088 1509 1088 1472 c 2
 1088 1344 l 2
1520 1292 m 2
 1552 1321 1583 1321 1612 1292 c 0
 1641 1263 1641 1232 1612 1200 c 2
 1520 1112 l 2
 1491 1083 1461 1083 1432 1112 c 0
 1403 1141 1403 1171 1432 1200 c 2
 1520 1292 l 2
616 1200 m 2
 645 1171 645 1141 616 1112 c 0
 587 1083 557 1083 528 1112 c 2
 436 1200 l 2
 407 1232 407 1263 436 1292 c 0
 465 1321 496 1321 528 1292 c 2
 616 1200 l 2
1408 640 m 2
 1445 640 1472 613 1472 576 c 0
 1472 539 1445 512 1408 512 c 2
 640 512 l 2
 603 512 576 539 576 576 c 0
 576 613 603 640 640 640 c 2
 1408 640 l 2
1280 384 m 2
 1317 384 1344 357 1344 320 c 0
 1344 283 1317 256 1280 256 c 2
 768 256 l 2
 731 256 704 283 704 320 c 0
 704 357 731 384 768 384 c 2
 1280 384 l 2
EndSplineSet
Validated: 33
EndChar

StartChar: uniEA0F
Encoding: 59919 59919 54
Width: 2048
Flags: W
HStem: 64 256<962.736 1085.26> 448 128<861.701 1185.97> 832 128<194.736 445.264 1602.74 1853.26> 1216 128<861.701 1186.3> 1472 256<962.736 1085.26>
VStem: 192 256<834.736 957.264> 576 128<733.701 1058.3> 960 128<66.7356 317.264 1474.74 1725.26> 1344 128<734.835 1058.3> 1600 256<834.736 957.264>
LayerCount: 2
Back
Fore
SplineSet
1340 1212 m 0
 1428 1124 1472 1019 1472 896 c 0
 1472 773 1428 668 1340 580 c 0
 1252 492 1147 448 1024 448 c 0
 901 448 796 492 708 580 c 0
 620 668 576 773 576 896 c 0
 576 1019 620 1124 708 1212 c 0
 796 1300 901 1344 1024 1344 c 0
 1147 1344 1252 1300 1340 1212 c 0
1248 668 m 0
 1312 732 1344 808 1344 896 c 0
 1344 984 1313 1059 1250 1122 c 0
 1187 1185 1112 1216 1024 1216 c 0
 936 1216 861 1185 798 1122 c 0
 735 1059 704 984 704 896 c 0
 704 808 735 733 798 670 c 0
 861 607 936 576 1024 576 c 0
 1112 576 1187 607 1248 668 c 0
1088 1536 m 2
 1088 1499 1061 1472 1024 1472 c 0
 987 1472 960 1499 960 1536 c 2
 960 1664 l 2
 960 1701 987 1728 1024 1728 c 0
 1061 1728 1088 1701 1088 1664 c 2
 1088 1536 l 2
960 256 m 2
 960 293 987 320 1024 320 c 0
 1061 320 1088 293 1088 256 c 2
 1088 128 l 2
 1088 91 1061 64 1024 64 c 0
 987 64 960 91 960 128 c 2
 960 256 l 2
1520 1304 m 2
 1491 1275 1461 1275 1432 1304 c 0
 1403 1333 1403 1363 1432 1392 c 2
 1520 1484 l 2
 1552 1513 1583 1513 1612 1484 c 0
 1641 1455 1641 1424 1612 1392 c 2
 1520 1304 l 2
528 488 m 2
 557 520 587 521 616 490 c 0
 645 459 645 429 616 400 c 2
 528 308 l 2
 496 279 465 279 436 308 c 0
 407 337 407 368 436 400 c 2
 528 488 l 2
384 960 m 2
 421 960 448 933 448 896 c 0
 448 859 421 832 384 832 c 2
 256 832 l 2
 219 832 192 859 192 896 c 0
 192 933 219 960 256 960 c 2
 384 960 l 2
1792 960 m 2
 1829 960 1856 933 1856 896 c 0
 1856 859 1829 832 1792 832 c 2
 1664 832 l 2
 1627 832 1600 859 1600 896 c 0
 1600 933 1627 960 1664 960 c 2
 1792 960 l 2
528 1304 m 2
 436 1392 l 2
 407 1424 407 1455 436 1484 c 0
 465 1513 496 1513 528 1484 c 2
 616 1392 l 2
 645 1363 645 1333 616 1304 c 0
 587 1275 557 1275 528 1304 c 2
1520 488 m 2
 1612 400 l 2
 1641 368 1641 337 1612 308 c 0
 1583 279 1552 279 1520 308 c 2
 1432 400 l 2
 1403 429 1403 459 1432 488 c 0
 1461 517 1491 517 1520 488 c 2
EndSplineSet
Validated: 33
EndChar

StartChar: uniEA10
Encoding: 59920 59920 55
Width: 2048
Flags: W
VStem: 524 128<728.794 1088.54>
LayerCount: 2
Back
Fore
SplineSet
1400 548 m 0
 1299 447 1177 396 1036 396 c 0
 895 396 774 446 674 546 c 0
 574 646 524 767 524 908 c 0
 524 1049 575 1171 676 1272 c 0
 729 1325 793 1365 868 1392 c 0
 892 1400 913 1395 932 1376 c 0
 951 1357 956 1335 948 1308 c 0
 924 1239 920 1168 936 1096 c 0
 952 1024 986 962 1038 910 c 0
 1090 858 1152 824 1224 808 c 0
 1296 792 1367 796 1436 820 c 0
 1463 828 1485 823 1504 804 c 0
 1523 785 1528 764 1520 740 c 0
 1493 665 1453 601 1400 548 c 0
764 1180 m 0
 689 1105 652 1015 652 910 c 0
 652 805 689 713 764 636 c 0
 844 556 942 519 1058 526 c 0
 1174 533 1267 581 1336 672 c 1
 1184 661 1054 710 946 818 c 0
 838 926 789 1056 800 1208 c 1
 787 1200 775 1191 764 1180 c 0
EndSplineSet
Validated: 33
EndChar

StartChar: uniEA11
Encoding: 59921 59921 56
Width: 2048
Flags: W
HStem: 4 256<1022.74 1145.26> 772 128<254.736 505.264> 1412 256<1022.74 1145.26>
VStem: 252 256<774.736 897.264> 636 128<674.881 997.119> 1020 128<6.7356 257.264 1414.74 1665.26>
CounterMasks: 1 e0
LayerCount: 2
Back
Fore
SplineSet
1148 1476 m 2
 1148 1439 1121 1412 1084 1412 c 0
 1047 1412 1020 1439 1020 1476 c 2
 1020 1604 l 2
 1020 1641 1047 1668 1084 1668 c 0
 1121 1668 1148 1641 1148 1604 c 2
 1148 1476 l 2
1020 196 m 2
 1020 233 1047 260 1084 260 c 0
 1121 260 1148 233 1148 196 c 2
 1148 68 l 2
 1148 31 1121 4 1084 4 c 0
 1047 4 1020 31 1020 68 c 2
 1020 196 l 2
588 428 m 2
 617 460 647 461 676 430 c 0
 705 399 705 369 676 340 c 2
 588 248 l 2
 556 219 525 219 496 248 c 0
 467 277 467 308 496 340 c 2
 588 428 l 2
444 900 m 2
 481 900 508 873 508 836 c 0
 508 799 481 772 444 772 c 2
 316 772 l 2
 279 772 252 799 252 836 c 0
 252 873 279 900 316 900 c 2
 444 900 l 2
588 1244 m 2
 496 1332 l 2
 467 1364 467 1395 496 1424 c 0
 525 1453 556 1453 588 1424 c 2
 676 1332 l 2
 705 1303 705 1273 676 1244 c 0
 647 1215 617 1215 588 1244 c 2
1340 1284 m 0
 1463 1284 1568 1240 1656 1152 c 0
 1744 1064 1788 959 1788 836 c 0
 1788 713 1744 608 1656 520 c 0
 1568 432 1463 388 1340 388 c 0
 1300 388 1257 395 1212 408 c 1
 1167 395 1124 388 1084 388 c 0
 961 388 856 432 768 520 c 0
 680 608 636 713 636 836 c 0
 636 959 680 1064 768 1152 c 0
 856 1240 961 1284 1084 1284 c 0
 1124 1284 1167 1277 1212 1264 c 1
 1257 1277 1300 1284 1340 1284 c 0
1020 524 m 1
 935 609 892 713 892 836 c 0
 892 959 935 1063 1020 1148 c 1
 948 1135 887 1099 838 1040 c 0
 789 981 764 913 764 836 c 0
 764 759 789 691 838 632 c 0
 887 573 948 537 1020 524 c 1
EndSplineSet
Validated: 33
EndChar

StartChar: uniEA12
Encoding: 59922 59922 57
Width: 2048
Flags: W
HStem: 388 128<891.375 1276.63> 644 128<127.329 544 772 1396 1624 1784.67> 900 128<254.736 522.466 644 1524 1646.29 2041.26> 1156 128<126.736 544 772 1145.26> 1412 128<891.375 1277.15>
VStem: 516 128<773.877 900 1028 1154.12> 1524 128<773.877 900 1028 1168.39>
LayerCount: 2
Back
Fore
SplineSet
1980 1028 m 2
 2017 1028 2044 1001 2044 964 c 0
 2044 927 2017 900 1980 900 c 2
 1652 900 l 1
 1647 855 1637 812 1624 772 c 1
 1712 772 l 2
 1755 772 1788 745 1788 708 c 0
 1788 671 1755 644 1712 644 c 2
 1564 644 l 1
 1511 567 1442 505 1358 458 c 0
 1274 411 1183 388 1084 388 c 0
 985 388 894 411 810 458 c 0
 726 505 657 567 604 644 c 1
 200 644 l 2
 157 644 124 671 124 708 c 0
 124 745 157 772 200 772 c 2
 544 772 l 1
 531 812 521 855 516 900 c 1
 316 900 l 2
 279 900 252 927 252 964 c 0
 252 1001 279 1028 316 1028 c 2
 516 1028 l 1
 521 1073 531 1116 544 1156 c 1
 188 1156 l 2
 151 1156 124 1183 124 1220 c 0
 124 1257 151 1284 188 1284 c 2
 604 1284 l 1
 657 1361 726 1423 810 1470 c 0
 894 1517 985 1540 1084 1540 c 0
 1231 1540 1358 1491 1466 1392 c 0
 1574 1293 1636 1172 1652 1028 c 1
 1980 1028 l 2
680 1156 m 1
 661 1116 649 1073 644 1028 c 1
 1524 1028 l 1
 1508 1137 1459 1229 1376 1302 c 0
 1293 1375 1196 1412 1084 1412 c 0
 964 1412 860 1369 772 1284 c 1
 1084 1284 l 2
 1121 1284 1148 1257 1148 1220 c 0
 1148 1183 1121 1156 1084 1156 c 2
 680 1156 l 1
772 644 m 1
 860 559 964 516 1084 516 c 0
 1204 516 1308 559 1396 644 c 1
 772 644 l 1
1488 772 m 1
 1507 812 1519 855 1524 900 c 1
 644 900 l 1
 649 855 661 812 680 772 c 1
 1488 772 l 1
EndSplineSet
Validated: 1
EndChar

StartChar: uniEA13
Encoding: 59923 59923 58
Width: 2048
Flags: W
HStem: 256 384<1216.46 1463.54> 512 128<255.639 1160> 768 128<254.736 1544> 1024 384<960.461 1207.54> 1024 128<254.736 904>
VStem: 892 384<1152.99 1339.54> 1148 384<324.461 511.015> 1532 384<896.985 1083.54>
LayerCount: 2
Back
Fore
SplineSet
1532 960 m 0x29
 1532 1013 1551 1059 1588 1096 c 0
 1625 1133 1671 1152 1724 1152 c 0
 1777 1152 1823 1133 1860 1096 c 0
 1897 1059 1916 1013 1916 960 c 0
 1916 907 1897 861 1860 824 c 0
 1823 787 1777 768 1724 768 c 2
 316 768 l 2
 279 768 252 795 252 832 c 0
 252 869 279 896 316 896 c 2
 1544 896 l 1
 1536 917 1532 939 1532 960 c 0x29
316 1024 m 2
 279 1024 252 1051 252 1088 c 0
 252 1125 279 1152 316 1152 c 2
 904 1152 l 1x2c
 896 1173 892 1195 892 1216 c 0
 892 1269 911 1315 948 1352 c 0
 985 1389 1031 1408 1084 1408 c 0
 1137 1408 1183 1389 1220 1352 c 0
 1257 1315 1276 1269 1276 1216 c 0
 1276 1163 1257 1117 1220 1080 c 0
 1183 1043 1137 1024 1084 1024 c 2x34
 316 1024 l 2
1340 640 m 2xa2
 1393 640 1439 621 1476 584 c 0
 1513 547 1532 501 1532 448 c 0
 1532 395 1513 349 1476 312 c 0
 1439 275 1393 256 1340 256 c 0xa2
 1287 256 1241 275 1204 312 c 0
 1167 349 1148 395 1148 448 c 0
 1148 469 1152 491 1160 512 c 1
 336 512 l 2
 288 512 252 539 252 576 c 0
 252 613 288 640 336 640 c 2x62
 1320 640 l 1
 1340 640 l 2xa2
EndSplineSet
Validated: 1
EndChar

StartChar: uniEA14
Encoding: 59924 59924 59
Width: 2048
Flags: W
HStem: 256 512<930.814 1119.64> 1024 512<928.361 1119.64>
VStem: 896 256<288.361 554.941 1237.06 1503.64>
LayerCount: 2
Back
Fore
SplineSet
1532 752 m 2
 1561 733 1581 707 1590 672 c 0
 1599 637 1595 605 1578 576 c 0
 1561 547 1535 527 1500 518 c 0
 1465 509 1433 512 1404 528 c 2
 1272 604 l 1
 1237 575 1197 552 1152 536 c 1
 1152 384 l 2
 1152 349 1139 319 1114 294 c 0
 1089 269 1059 256 1024 256 c 0
 989 256 959 269 934 294 c 0
 909 319 896 349 896 384 c 2
 896 536 l 1
 853 552 813 575 776 604 c 1
 644 528 l 2
 615 512 583 509 548 518 c 0
 513 527 487 547 470 576 c 0
 453 605 449 637 458 672 c 0
 467 707 487 733 516 752 c 2
 648 828 l 1
 637 876 637 915 648 968 c 1
 516 1040 l 2
 487 1059 467 1085 458 1120 c 0
 449 1155 453 1187 470 1218 c 0
 487 1249 513 1268 548 1276 c 0
 583 1284 615 1280 644 1264 c 2
 776 1188 l 1
 813 1217 853 1240 896 1256 c 1
 896 1408 l 2
 896 1443 909 1473 934 1498 c 0
 959 1523 989 1536 1024 1536 c 0
 1059 1536 1089 1523 1114 1498 c 0
 1139 1473 1152 1443 1152 1408 c 2
 1152 1256 l 1
 1195 1240 1235 1217 1272 1188 c 1
 1404 1264 l 2
 1433 1280 1465 1283 1500 1274 c 0
 1535 1265 1561 1245 1578 1216 c 0
 1595 1187 1599 1155 1590 1120 c 0
 1581 1085 1561 1059 1532 1040 c 2
 1400 964 l 1
 1411 916 1411 876 1400 828 c 1
 1532 752 l 2
932 804 m 1
 959 780 989 768 1024 768 c 0
 1059 768 1089 781 1114 806 c 0
 1139 831 1152 861 1152 896 c 0
 1152 931 1139 961 1114 986 c 0
 1089 1011 1059 1024 1024 1024 c 0
 989 1024 959 1011 934 986 c 0
 909 961 896 931 896 896 c 0
 896 861 908 831 932 804 c 1
EndSplineSet
Validated: 33
EndChar

StartChar: uniEA15
Encoding: 59925 59925 60
Width: 2048
Flags: W
HStem: -128 128<814.73 1233.27> 0 128<285.701 606.842 1441.16 1762.3> 768 128<284.836 432 1517.27 1762.3> 1024 128<2.7356 253.264 815.549 1145.96 1410.74 1661.26> 1408 128<669.701 997.222> 1664 256<770.736 893.264>
VStem: 0 256<1026.74 1149.26> 0 128<285.701 610.957> 384 128<942.282 1250.3> 768 128<1666.74 1917.26> 1408 256<1026.74 1149.26> 1920 128<285.701 610.299>
LayerCount: 2
Back
Fore
SplineSet
896 1728 m 2x3cf0
 896 1691 869 1664 832 1664 c 0
 795 1664 768 1691 768 1728 c 2
 768 1856 l 2
 768 1893 795 1920 832 1920 c 0
 869 1920 896 1893 896 1856 c 2
 896 1728 l 2x3cf0
1328 1496 m 2
 1299 1467 1269 1467 1240 1496 c 0
 1211 1525 1211 1555 1240 1584 c 2
 1328 1676 l 2
 1360 1705 1391 1705 1420 1676 c 0
 1449 1647 1449 1616 1420 1584 c 2
 1328 1496 l 2
64 1024 m 2
 27 1024 0 1051 0 1088 c 0
 0 1125 27 1152 64 1152 c 2
 192 1152 l 2
 229 1152 256 1125 256 1088 c 0x3ef0
 256 1051 229 1024 192 1024 c 2
 64 1024 l 2
1472 1024 m 2
 1435 1024 1408 1051 1408 1088 c 0
 1408 1125 1435 1152 1472 1152 c 2
 1600 1152 l 2
 1637 1152 1664 1125 1664 1088 c 0
 1664 1051 1637 1024 1600 1024 c 2
 1472 1024 l 2
336 1496 m 2
 244 1584 l 2
 215 1616 215 1647 244 1676 c 0
 273 1705 304 1705 336 1676 c 2
 424 1584 l 2
 453 1555 453 1525 424 1496 c 0
 395 1467 365 1467 336 1496 c 2
1600 896 m 0
 1723 896 1828 852 1916 764 c 0
 2004 676 2048 571 2048 448 c 0
 2048 325 2004 220 1916 132 c 0
 1828 44 1723 0 1600 0 c 0x7df0
 1544 0 1491 9 1440 28 c 1
 1320 -76 1181 -128 1024 -128 c 0xbdf0
 867 -128 728 -76 608 28 c 1
 557 9 504 0 448 0 c 0
 325 0 220 44 132 132 c 0
 44 220 0 325 0 448 c 0x7df0
 0 568 42 671 126 758 c 0
 210 845 312 891 432 896 c 1
 400 957 384 1021 384 1088 c 0
 384 1211 428 1316 516 1404 c 0
 604 1492 709 1536 832 1536 c 0
 955 1536 1059 1493 1146 1408 c 0
 1233 1323 1277 1219 1280 1096 c 1
 1384 1051 1469 983 1536 892 c 1
 1557 895 1579 896 1600 896 c 0
832 1408 m 0
 744 1408 669 1377 606 1314 c 0
 543 1251 512 1176 512 1088 c 0
 512 1037 525 988 552 940 c 1
 677 1081 835 1152 1024 1152 c 0
 1061 1152 1103 1148 1148 1140 c 1
 1135 1217 1099 1281 1040 1332 c 0
 981 1383 912 1408 832 1408 c 0
1600 128 m 0
 1688 128 1763 159 1826 222 c 0
 1889 285 1920 360 1920 448 c 0
 1920 536 1889 611 1826 674 c 0
 1763 737 1688 768 1600 768 c 0
 1557 768 1517 760 1480 744 c 1
 1429 840 1356 913 1260 964 c 0
 1223 985 1183 1000 1140 1008 c 0
 1100 1019 1061 1024 1024 1024 c 0
 867 1024 736 963 632 840 c 0
 605 808 584 776 568 744 c 0
 565 744 555 747 536 752 c 0
 504 763 475 768 448 768 c 0
 360 768 285 737 222 674 c 0
 159 611 128 536 128 448 c 0
 128 360 159 285 222 222 c 0
 285 159 360 128 448 128 c 0x7df0
 515 128 576 148 632 188 c 1
 736 63 867 0 1024 0 c 0xbdf0
 1181 0 1312 63 1416 188 c 1
 1472 148 1533 128 1600 128 c 0
EndSplineSet
Validated: 33
EndChar

StartChar: uniEA16
Encoding: 59926 59926 61
Width: 2048
Flags: W
HStem: -128 128<818.73 1237.27> 0 128<289.701 610.842 1445.16 1766.3> 768 128<289.701 534.726>
VStem: 4 128<285.701 610.299> 1924 128<285.701 610.032>
LayerCount: 2
Back
Fore
SplineSet
1744 872 m 1x78
 1835 843 1909 789 1966 712 c 0
 2023 635 2052 547 2052 448 c 0
 2052 325 2008 220 1920 132 c 0
 1832 44 1727 0 1604 0 c 0x78
 1548 0 1495 9 1444 28 c 1
 1324 -76 1185 -128 1028 -128 c 0xb8
 871 -128 732 -76 612 28 c 1
 561 9 508 0 452 0 c 0
 329 0 224 44 136 132 c 0
 48 220 4 325 4 448 c 0
 4 571 48 676 136 764 c 0
 224 852 329 896 452 896 c 0
 473 896 495 895 516 892 c 1
 623 1039 767 1124 948 1148 c 1
 924 1231 923 1317 946 1408 c 0
 969 1499 1012 1576 1076 1640 c 0
 1129 1693 1193 1733 1268 1760 c 0
 1295 1771 1317 1766 1336 1746 c 0
 1355 1726 1360 1704 1352 1680 c 0
 1325 1608 1320 1537 1336 1466 c 0
 1352 1395 1386 1333 1438 1280 c 0
 1490 1227 1552 1192 1624 1176 c 0
 1696 1160 1768 1165 1840 1192 c 0
 1864 1200 1886 1195 1906 1176 c 0
 1926 1157 1931 1135 1920 1108 c 0
 1893 1033 1853 969 1800 916 c 0
 1789 905 1771 891 1744 872 c 1x78
1168 1552 m 0
 1115 1499 1080 1435 1064 1360 c 0
 1048 1285 1053 1215 1080 1148 c 1
 1264 1135 1413 1055 1528 908 c 1
 1616 929 1687 973 1740 1040 c 1
 1588 1032 1457 1082 1348 1190 c 0
 1239 1298 1189 1428 1200 1580 c 1
 1189 1572 1179 1563 1168 1552 c 0
1604 128 m 0
 1692 128 1767 159 1830 222 c 0
 1893 285 1924 360 1924 448 c 0
 1924 536 1893 611 1830 674 c 0
 1767 737 1692 768 1604 768 c 0
 1561 768 1521 760 1484 744 c 1
 1479 749 1468 767 1468 772 c 0
 1433 825 1393 872 1348 912 c 1
 1295 952 1237 981 1176 1000 c 0
 1128 1016 1079 1024 1028 1024 c 0
 1023 1024 1000 1025 1000 1020 c 1
 907 1017 823 991 748 940 c 0
 673 889 615 824 572 744 c 1
 535 760 495 768 452 768 c 0
 364 768 289 737 226 674 c 0
 163 611 132 536 132 448 c 0
 132 360 163 285 226 222 c 0
 289 159 364 128 452 128 c 0x78
 519 128 580 148 636 188 c 1
 740 63 871 0 1028 0 c 0xb8
 1185 0 1316 63 1420 188 c 1
 1476 148 1537 128 1604 128 c 0
EndSplineSet
Validated: 33
EndChar

StartChar: uniEA17
Encoding: 59927 59927 62
Width: 2048
Flags: W
HStem: 132 128<194.736 1853.26> 388 128<194.736 1853.26> 644 128<194.736 1853.26> 900 128<194.736 445.264 1602.74 1853.26> 1284 128<861.701 1186.3> 1540 256<962.736 1085.26>
VStem: 192 256<902.736 1025.26> 576 128<900 1126.3> 960 128<1542.74 1793.26> 1344 128<900 1126.3> 1600 256<902.736 1025.26>
LayerCount: 2
Back
Fore
SplineSet
1088 1604 m 2
 1088 1567 1061 1540 1024 1540 c 0
 987 1540 960 1567 960 1604 c 2
 960 1732 l 2
 960 1769 987 1796 1024 1796 c 0
 1061 1796 1088 1769 1088 1732 c 2
 1088 1604 l 2
1520 1372 m 2
 1491 1343 1461 1343 1432 1372 c 0
 1403 1401 1403 1431 1432 1460 c 2
 1520 1552 l 2
 1552 1581 1583 1581 1612 1552 c 0
 1641 1523 1641 1492 1612 1460 c 2
 1520 1372 l 2
256 900 m 2
 219 900 192 927 192 964 c 0
 192 1001 219 1028 256 1028 c 2
 384 1028 l 2
 421 1028 448 1001 448 964 c 0
 448 927 421 900 384 900 c 2
 256 900 l 2
1664 900 m 2
 1627 900 1600 927 1600 964 c 0
 1600 1001 1627 1028 1664 1028 c 2
 1792 1028 l 2
 1829 1028 1856 1001 1856 964 c 0
 1856 927 1829 900 1792 900 c 2
 1664 900 l 2
528 1372 m 2
 436 1460 l 2
 407 1492 407 1523 436 1552 c 0
 465 1581 496 1581 528 1552 c 2
 616 1460 l 2
 645 1431 645 1401 616 1372 c 0
 587 1343 557 1343 528 1372 c 2
584 900 m 1
 579 929 576 951 576 964 c 0
 576 1087 620 1192 708 1280 c 0
 796 1368 901 1412 1024 1412 c 0
 1147 1412 1252 1368 1340 1280 c 0
 1428 1192 1472 1087 1472 964 c 0
 1472 951 1469 929 1464 900 c 1
 1336 900 l 1
 1341 921 1344 943 1344 964 c 0
 1344 1052 1313 1127 1250 1190 c 0
 1187 1253 1112 1284 1024 1284 c 0
 936 1284 861 1253 798 1190 c 0
 735 1127 704 1052 704 964 c 0
 704 943 707 921 712 900 c 1
 584 900 l 1
1792 772 m 2
 1829 772 1856 745 1856 708 c 0
 1856 671 1829 644 1792 644 c 2
 256 644 l 2
 219 644 192 671 192 708 c 0
 192 745 219 772 256 772 c 2
 1792 772 l 2
1792 516 m 2
 1829 516 1856 489 1856 452 c 0
 1856 415 1829 388 1792 388 c 2
 256 388 l 2
 219 388 192 415 192 452 c 0
 192 489 219 516 256 516 c 2
 1792 516 l 2
1792 260 m 2
 1829 260 1856 233 1856 196 c 0
 1856 159 1829 132 1792 132 c 2
 256 132 l 2
 219 132 192 159 192 196 c 0
 192 233 219 260 256 260 c 2
 1792 260 l 2
EndSplineSet
Validated: 33
EndChar

StartChar: uniEA18
Encoding: 59928 59928 63
Width: 2048
Flags: W
HStem: 132 128<194.736 1853.26> 388 128<194.736 1853.26> 644 128<194.736 1853.26> 900 188<1352 1543.21>
LayerCount: 2
Back
Fore
SplineSet
256 644 m 2
 219 644 192 671 192 708 c 0
 192 745 219 772 256 772 c 2
 1792 772 l 2
 1829 772 1856 745 1856 708 c 0
 1856 671 1829 644 1792 644 c 2
 256 644 l 2
1792 516 m 2
 1829 516 1856 489 1856 452 c 0
 1856 415 1829 388 1792 388 c 2
 256 388 l 2
 219 388 192 415 192 452 c 0
 192 489 219 516 256 516 c 2
 1792 516 l 2
1792 260 m 2
 1829 260 1856 233 1856 196 c 0
 1856 159 1829 132 1792 132 c 2
 256 132 l 2
 219 132 192 159 192 196 c 0
 192 233 219 260 256 260 c 2
 1792 260 l 2
820 900 m 2
 656 900 l 1
 592 999 566 1108 578 1228 c 0
 590 1348 639 1451 724 1536 c 0
 777 1589 841 1629 916 1656 c 0
 943 1664 965 1659 984 1640 c 0
 1003 1621 1008 1600 1000 1576 c 0
 973 1504 968 1432 984 1360 c 0
 1000 1288 1035 1226 1088 1174 c 0
 1141 1122 1203 1088 1274 1072 c 0
 1345 1056 1416 1061 1488 1088 c 0
 1512 1096 1533 1091 1552 1072 c 0
 1571 1053 1576 1031 1568 1004 c 0
 1555 967 1539 932 1520 900 c 1
 1352 900 l 1
 1373 919 1385 931 1388 936 c 1
 1236 925 1106 975 998 1084 c 0
 890 1193 840 1324 848 1476 c 1
 837 1468 827 1459 816 1448 c 0
 741 1373 704 1283 704 1176 c 0
 704 1069 741 979 816 904 c 2
 816 904 817 903 820 900 c 2
EndSplineSet
Validated: 33
EndChar

StartChar: uniEA19
Encoding: 59929 59929 64
Width: 2048
Flags: W
HStem: 128 128<2.7356 2045.26> 384 128<2.7356 2045.26> 640 128<2.7356 2045.26> 1280 128<285.701 530.726 1517.27 1762.3> 1536 128<813.857 1234.14>
VStem: 0 128<896 1122.3> 1920 128<896 1122.3>
LayerCount: 2
Back
Fore
SplineSet
136 896 m 1
 8 896 l 1
 3 925 0 947 0 960 c 0
 0 1083 44 1188 132 1276 c 0
 220 1364 325 1408 448 1408 c 0
 469 1408 491 1407 512 1404 c 1
 571 1487 645 1551 736 1596 c 0
 827 1641 923 1664 1024 1664 c 0
 1125 1664 1221 1641 1312 1596 c 0
 1403 1551 1477 1487 1536 1404 c 1
 1557 1407 1579 1408 1600 1408 c 0
 1723 1408 1828 1364 1916 1276 c 0
 2004 1188 2048 1083 2048 960 c 0
 2048 947 2045 925 2040 896 c 1
 1912 896 l 1
 1917 917 1920 939 1920 960 c 0
 1920 1048 1889 1123 1826 1186 c 0
 1763 1249 1688 1280 1600 1280 c 0
 1557 1280 1517 1272 1480 1256 c 1
 1435 1341 1372 1409 1292 1460 c 0
 1212 1511 1123 1536 1024 1536 c 0
 925 1536 836 1511 756 1460 c 0
 676 1409 613 1341 568 1256 c 1
 531 1272 491 1280 448 1280 c 0
 360 1280 285 1249 222 1186 c 0
 159 1123 128 1048 128 960 c 0
 128 939 131 917 136 896 c 1
1984 768 m 2
 2021 768 2048 741 2048 704 c 0
 2048 667 2021 640 1984 640 c 2
 64 640 l 2
 27 640 0 667 0 704 c 0
 0 741 27 768 64 768 c 2
 1984 768 l 2
1984 512 m 2
 2021 512 2048 485 2048 448 c 0
 2048 411 2021 384 1984 384 c 2
 64 384 l 2
 27 384 0 411 0 448 c 0
 0 485 27 512 64 512 c 2
 1984 512 l 2
1984 256 m 2
 2021 256 2048 229 2048 192 c 0
 2048 155 2021 128 1984 128 c 2
 64 128 l 2
 27 128 0 155 0 192 c 0
 0 229 27 256 64 256 c 2
 1984 256 l 2
EndSplineSet
Validated: 1
EndChar

StartChar: uniEA1A
Encoding: 59930 59930 65
Width: 2048
Flags: W
HStem: 512 128<386.736 1661.26> 768 128<386.736 1661.26> 1024 128<386.736 1661.26> 1280 128<386.736 1661.26>
LayerCount: 2
Back
Fore
SplineSet
448 1280 m 2
 411 1280 384 1307 384 1344 c 0
 384 1381 411 1408 448 1408 c 2
 1600 1408 l 2
 1637 1408 1664 1381 1664 1344 c 0
 1664 1307 1637 1280 1600 1280 c 2
 448 1280 l 2
1600 1152 m 2
 1637 1152 1664 1125 1664 1088 c 0
 1664 1051 1637 1024 1600 1024 c 2
 448 1024 l 2
 411 1024 384 1051 384 1088 c 0
 384 1125 411 1152 448 1152 c 2
 1600 1152 l 2
1600 896 m 2
 1637 896 1664 869 1664 832 c 0
 1664 795 1637 768 1600 768 c 2
 448 768 l 2
 411 768 384 795 384 832 c 0
 384 869 411 896 448 896 c 2
 1600 896 l 2
1600 640 m 2
 1637 640 1664 613 1664 576 c 0
 1664 539 1637 512 1600 512 c 2
 448 512 l 2
 411 512 384 539 384 576 c 0
 384 613 411 640 448 640 c 2
 1600 640 l 2
EndSplineSet
Validated: 1
EndChar

StartChar: uniEA1B
Encoding: 59931 59931 66
Width: 2048
Flags: W
HStem: 256 128<814.73 1233.27> 384 128<285.701 606.842 1441.16 1762.3> 1152 128<285.701 530.726 1517.27 1762.3> 1408 128<813.857 1234.14>
VStem: 0 128<669.701 994.299> 1920 128<669.701 994.299>
LayerCount: 2
Back
Fore
SplineSet
1600 1280 m 0x7c
 1723 1280 1828 1236 1916 1148 c 0
 2004 1060 2048 955 2048 832 c 0
 2048 709 2004 604 1916 516 c 0
 1828 428 1723 384 1600 384 c 0x7c
 1544 384 1491 393 1440 412 c 1
 1320 308 1181 256 1024 256 c 0xbc
 867 256 728 308 608 412 c 1
 557 393 504 384 448 384 c 0
 325 384 220 428 132 516 c 0
 44 604 0 709 0 832 c 0
 0 955 44 1060 132 1148 c 0
 220 1236 325 1280 448 1280 c 0
 469 1280 491 1279 512 1276 c 1
 571 1359 645 1423 736 1468 c 0
 827 1513 923 1536 1024 1536 c 0
 1125 1536 1221 1513 1312 1468 c 0
 1403 1423 1477 1359 1536 1276 c 1
 1557 1279 1579 1280 1600 1280 c 0x7c
1600 512 m 0
 1688 512 1763 543 1826 606 c 0
 1889 669 1920 744 1920 832 c 0
 1920 920 1889 995 1826 1058 c 0
 1763 1121 1688 1152 1600 1152 c 0
 1557 1152 1517 1144 1480 1128 c 1
 1435 1213 1372 1281 1292 1332 c 0
 1212 1383 1123 1408 1024 1408 c 0
 925 1408 836 1383 756 1332 c 0
 676 1281 613 1213 568 1128 c 1
 531 1144 491 1152 448 1152 c 0
 360 1152 285 1121 222 1058 c 0
 159 995 128 920 128 832 c 0
 128 744 159 669 222 606 c 0
 285 543 360 512 448 512 c 0x7c
 515 512 576 532 632 572 c 1
 736 447 867 384 1024 384 c 0xbc
 1181 384 1312 447 1416 572 c 1
 1472 532 1533 512 1600 512 c 0
EndSplineSet
Validated: 1
EndChar

StartChar: uniEA1C
Encoding: 59932 59932 67
Width: 2048
Flags: W
HStem: 0 21G<774.667 788> 768 128<285.701 606.842 1441.16 1762.3> 1536 128<285.701 530.726 1517.27 1762.3> 1792 128<813.857 1234.14>
VStem: 0 128<1053.7 1378.3> 1920 128<1053.7 1378.3>
LayerCount: 2
Back
Fore
SplineSet
1600 1664 m 0
 1723 1664 1828 1620 1916 1532 c 0
 2004 1444 2048 1339 2048 1216 c 0
 2048 1093 2004 988 1916 900 c 0
 1828 812 1723 768 1600 768 c 0
 1544 768 1491 777 1440 796 c 1
 1336 705 1212 655 1068 644 c 1
 1024 512 l 1
 1152 384 l 1
 768 0 l 1
 896 384 l 1
 768 512 l 1
 908 652 l 1
 793 673 693 721 608 796 c 1
 557 777 504 768 448 768 c 0
 325 768 220 812 132 900 c 0
 44 988 0 1093 0 1216 c 0
 0 1339 44 1444 132 1532 c 0
 220 1620 325 1664 448 1664 c 0
 469 1664 491 1663 512 1660 c 1
 571 1743 645 1807 736 1852 c 0
 827 1897 923 1920 1024 1920 c 0
 1125 1920 1221 1897 1312 1852 c 0
 1403 1807 1477 1743 1536 1660 c 1
 1557 1663 1579 1664 1600 1664 c 0
1600 896 m 0
 1688 896 1763 927 1826 990 c 0
 1889 1053 1920 1128 1920 1216 c 0
 1920 1304 1889 1379 1826 1442 c 0
 1763 1505 1688 1536 1600 1536 c 0
 1557 1536 1517 1528 1480 1512 c 1
 1435 1597 1372 1665 1292 1716 c 0
 1212 1767 1123 1792 1024 1792 c 0
 925 1792 836 1767 756 1716 c 0
 676 1665 613 1597 568 1512 c 1
 531 1528 491 1536 448 1536 c 0
 360 1536 285 1505 222 1442 c 0
 159 1379 128 1304 128 1216 c 0
 128 1128 159 1053 222 990 c 0
 285 927 360 896 448 896 c 0
 515 896 576 916 632 956 c 1
 736 831 867 768 1024 768 c 1
 1112 780 l 1
 1235 801 1336 860 1416 956 c 1
 1472 916 1533 896 1600 896 c 0
EndSplineSet
Validated: 1
EndChar

StartChar: uniEA1D
Encoding: 59933 59933 68
Width: 2048
Flags: W
HStem: 0 21G<774.667 788> 768 128<285.701 606.842 1441.16 1762.3> 1536 128<285.701 530.726 1517.27 1762.3> 1792 128<813.857 1234.14>
VStem: 0 128<1053.7 1378.3> 1920 128<1053.7 1378.3>
LayerCount: 2
Back
Fore
SplineSet
1600 1664 m 0
 1723 1664 1828 1620 1916 1532 c 0
 2004 1444 2048 1339 2048 1216 c 0
 2048 1093 2004 988 1916 900 c 0
 1828 812 1723 768 1600 768 c 0
 1544 768 1491 777 1440 796 c 1
 1376 740 1300 699 1212 672 c 1
 1264 832 l 1
 1325 867 1376 908 1416 956 c 1
 1472 916 1533 896 1600 896 c 0
 1688 896 1763 927 1826 990 c 0
 1889 1053 1920 1128 1920 1216 c 0
 1920 1304 1889 1379 1826 1442 c 0
 1763 1505 1688 1536 1600 1536 c 0
 1557 1536 1517 1528 1480 1512 c 1
 1435 1597 1372 1665 1292 1716 c 0
 1212 1767 1123 1792 1024 1792 c 0
 925 1792 836 1767 756 1716 c 0
 676 1665 613 1597 568 1512 c 1
 531 1528 491 1536 448 1536 c 0
 360 1536 285 1505 222 1442 c 0
 159 1379 128 1304 128 1216 c 0
 128 1128 159 1053 222 990 c 0
 285 927 360 896 448 896 c 0
 515 896 576 916 632 956 c 1
 693 881 773 828 872 796 c 1
 772 696 l 1
 708 723 653 756 608 796 c 1
 557 777 504 768 448 768 c 0
 325 768 220 812 132 900 c 0
 44 988 0 1093 0 1216 c 0
 0 1339 44 1444 132 1532 c 0
 220 1620 325 1664 448 1664 c 0
 469 1664 491 1663 512 1660 c 1
 571 1743 645 1807 736 1852 c 0
 827 1897 923 1920 1024 1920 c 0
 1125 1920 1221 1897 1312 1852 c 0
 1403 1807 1477 1743 1536 1660 c 1
 1557 1663 1579 1664 1600 1664 c 0
768 512 m 1
 1152 896 l 1
 1024 512 l 1
 1152 384 l 1
 768 0 l 1
 896 384 l 1
 768 512 l 1
EndSplineSet
Validated: 1
EndChar

StartChar: uniEA1E
Encoding: 59934 59934 69
Width: 2048
Flags: W
HStem: 0 21G<1006.5 1041.5> 512 128<814.73 1233.27> 640 128<285.701 606.842 1441.16 1762.3> 1408 128<285.701 530.726 1517.27 1762.3> 1664 128<813.857 1234.14>
VStem: 0 128<925.701 1250.3> 896 256<32.3608 248.543> 1920 128<925.701 1250.3>
CounterMasks: 1 07
LayerCount: 2
Back
Fore
SplineSet
1600 1536 m 0xbf
 1723 1536 1828 1492 1916 1404 c 0
 2004 1316 2048 1211 2048 1088 c 0
 2048 965 2004 860 1916 772 c 0
 1828 684 1723 640 1600 640 c 0xbf
 1544 640 1491 649 1440 668 c 1
 1320 564 1181 512 1024 512 c 0xdf
 867 512 728 564 608 668 c 1
 557 649 504 640 448 640 c 0
 325 640 220 684 132 772 c 0
 44 860 0 965 0 1088 c 0
 0 1211 44 1316 132 1404 c 0
 220 1492 325 1536 448 1536 c 0
 469 1536 491 1535 512 1532 c 1
 571 1615 645 1679 736 1724 c 0
 827 1769 923 1792 1024 1792 c 0
 1125 1792 1221 1769 1312 1724 c 0
 1403 1679 1477 1615 1536 1532 c 1
 1557 1535 1579 1536 1600 1536 c 0xbf
1600 768 m 0
 1688 768 1763 799 1826 862 c 0
 1889 925 1920 1000 1920 1088 c 0
 1920 1176 1889 1251 1826 1314 c 0
 1763 1377 1688 1408 1600 1408 c 0
 1557 1408 1517 1400 1480 1384 c 1
 1435 1469 1372 1537 1292 1588 c 0
 1212 1639 1123 1664 1024 1664 c 0
 925 1664 836 1639 756 1588 c 0
 676 1537 613 1469 568 1384 c 1
 531 1400 491 1408 448 1408 c 0
 360 1408 285 1377 222 1314 c 0
 159 1251 128 1176 128 1088 c 0
 128 1000 159 925 222 862 c 0
 285 799 360 768 448 768 c 0xbf
 515 768 576 788 632 828 c 1
 736 703 867 640 1024 640 c 0xdf
 1181 640 1312 703 1416 828 c 1
 1472 788 1533 768 1600 768 c 0
896 128 m 0
 896 176 939 261 1024 384 c 1
 1056 336 l 2
 1077 304 1099 267 1120 224 c 0
 1141 181 1152 149 1152 128 c 0
 1152 93 1139 63 1114 38 c 0
 1089 13 1059 0 1024 0 c 0
 989 0 959 13 934 38 c 0
 909 63 896 93 896 128 c 0
EndSplineSet
Validated: 1
EndChar

StartChar: uniEA1F
Encoding: 59935 59935 70
Width: 2048
Flags: W
HStem: 0 21G<1518.5 1553.5> 640 128<814.73 1233.27> 768 128<285.701 606.842 1441.16 1762.3> 1536 128<285.701 530.726 1517.27 1762.3> 1792 128<813.857 1234.14>
VStem: 0 128<1053.7 1378.3> 384 256<288.361 504.543> 900 256<-95.6392 120.543> 1408 256<32.3608 248.543> 1920 128<1053.7 1378.3>
LayerCount: 2
Back
Fore
SplineSet
1600 1664 m 0xbfc0
 1723 1664 1828 1620 1916 1532 c 0
 2004 1444 2048 1339 2048 1216 c 0
 2048 1093 2004 988 1916 900 c 0
 1828 812 1723 768 1600 768 c 0xbfc0
 1544 768 1491 777 1440 796 c 1
 1320 692 1181 640 1024 640 c 0xdfc0
 867 640 728 692 608 796 c 1
 557 777 504 768 448 768 c 0
 325 768 220 812 132 900 c 0
 44 988 0 1093 0 1216 c 0
 0 1339 44 1444 132 1532 c 0
 220 1620 325 1664 448 1664 c 0
 469 1664 491 1663 512 1660 c 1
 571 1743 645 1807 736 1852 c 0
 827 1897 923 1920 1024 1920 c 0
 1125 1920 1221 1897 1312 1852 c 0
 1403 1807 1477 1743 1536 1660 c 1
 1557 1663 1579 1664 1600 1664 c 0xbfc0
1600 896 m 0
 1688 896 1763 927 1826 990 c 0
 1889 1053 1920 1128 1920 1216 c 0
 1920 1304 1889 1379 1826 1442 c 0
 1763 1505 1688 1536 1600 1536 c 0
 1557 1536 1517 1528 1480 1512 c 1
 1435 1597 1372 1665 1292 1716 c 0
 1212 1767 1123 1792 1024 1792 c 0
 925 1792 836 1767 756 1716 c 0
 676 1665 613 1597 568 1512 c 1
 531 1528 491 1536 448 1536 c 0
 360 1536 285 1505 222 1442 c 0
 159 1379 128 1304 128 1216 c 0
 128 1128 159 1053 222 990 c 0
 285 927 360 896 448 896 c 0xbfc0
 515 896 576 916 632 956 c 1
 736 831 867 768 1024 768 c 0xdfc0
 1181 768 1312 831 1416 956 c 1
 1472 916 1533 896 1600 896 c 0
900 0 m 0
 900 48 943 133 1028 256 c 1
 1060 208 l 2
 1081 176 1103 139 1124 96 c 0
 1145 53 1156 21 1156 0 c 0
 1156 -35 1143 -65 1118 -90 c 0
 1093 -115 1063 -128 1028 -128 c 0
 993 -128 963 -115 938 -90 c 0
 913 -65 900 -35 900 0 c 0
1408 128 m 0
 1408 176 1451 261 1536 384 c 1
 1568 336 l 2
 1589 304 1611 267 1632 224 c 0
 1653 181 1664 149 1664 128 c 0
 1664 93 1651 63 1626 38 c 0
 1601 13 1571 0 1536 0 c 0
 1501 0 1471 13 1446 38 c 0
 1421 63 1408 93 1408 128 c 0
384 384 m 0
 384 432 427 517 512 640 c 1xdfc0
 544 592 l 2
 565 560 587 523 608 480 c 0
 629 437 640 405 640 384 c 0
 640 349 627 319 602 294 c 0
 577 269 547 256 512 256 c 0
 477 256 447 269 422 294 c 0
 397 319 384 349 384 384 c 0
EndSplineSet
Validated: 1
EndChar

StartChar: uniEA20
Encoding: 59936 59936 71
Width: 2048
Flags: W
HStem: 380 128<4.23059 635.769 1123.88 1477.16> 460 128<803.736 1034.76 1567.31 1798.43> 640 128<2.7356 381.264> 896 128<130.736 509.264> 1128 128<805.785 984.595 1619.21 1794.34> 1284 128<1119.21 1484.79>
VStem: 556 128<707.736 1005.72> 1920 128<709.09 1004.34>
LayerCount: 2
Back
Fore
SplineSet
1668 1256 m 1x7f
 1775 1251 1865 1209 1938 1132 c 0
 2011 1055 2048 963 2048 856 c 0
 2048 747 2009 653 1932 576 c 0
 1855 499 1760 460 1648 460 c 0x7f
 1627 460 1604 461 1580 464 c 1
 1495 408 1402 380 1302 380 c 0xbf
 1202 380 1109 408 1024 464 c 1
 1000 461 976 460 952 460 c 0
 843 460 749 499 672 576 c 0
 595 653 556 747 556 856 c 0
 556 963 593 1055 666 1132 c 0
 739 1209 829 1251 936 1256 c 1
 1037 1360 1159 1412 1302 1412 c 0
 1445 1412 1567 1360 1668 1256 c 1x7f
1648 588 m 0
 1723 588 1787 614 1840 666 c 0
 1893 718 1920 781 1920 856 c 0
 1920 931 1893 995 1840 1048 c 0
 1787 1101 1723 1128 1648 1128 c 0
 1637 1128 1625 1127 1612 1124 c 1
 1535 1231 1431 1284 1302 1284 c 0
 1173 1284 1069 1231 992 1124 c 1
 979 1127 965 1128 952 1128 c 0
 877 1128 814 1101 762 1048 c 0
 710 995 684 931 684 856 c 0
 684 781 710 718 762 666 c 0
 814 614 877 588 952 588 c 0x7f
 987 588 1019 593 1048 604 c 1
 1123 540 1207 508 1302 508 c 0xbf
 1397 508 1480 540 1552 604 c 1
 1584 593 1616 588 1648 588 c 0
576 512 m 2
 613 512 640 485 640 448 c 0
 640 411 613 384 576 384 c 2
 64 384 l 2
 27 384 0 411 0 448 c 0
 0 485 27 512 64 512 c 2
 576 512 l 2
64 640 m 2
 27 640 0 667 0 704 c 0
 0 741 27 768 64 768 c 2
 320 768 l 2
 357 768 384 741 384 704 c 0
 384 667 357 640 320 640 c 2
 64 640 l 2
192 896 m 2
 155 896 128 923 128 960 c 0
 128 997 155 1024 192 1024 c 2
 448 1024 l 2
 485 1024 512 997 512 960 c 0
 512 923 485 896 448 896 c 2
 192 896 l 2
EndSplineSet
Validated: 1
EndChar

StartChar: uniEA21
Encoding: 59937 59937 72
Width: 2048
Flags: W
HStem: 0 21G<1518.5 1553.5> 764 128<3.69803 636.302 1119.85 1481.15> 840 128<805.09 1034.76 1567.31 1794.81> 1020 128<3.69803 380.302> 1276 128<131.698 508.302> 1508 128<805.324 984.882 1619.12 1798.19> 1664 128<1119.21 1484.79>
VStem: 556 128<1089.57 1388.77> 896 256<288.361 504.543> 1408 256<32.3608 248.543> 1920 128<1093.19 1387.42>
LayerCount: 2
Back
Fore
SplineSet
1668 1636 m 1xbfe0
 1775 1631 1865 1590 1938 1514 c 0
 2011 1438 2048 1347 2048 1240 c 0
 2048 1128 2009 1033 1932 956 c 0
 1855 879 1760 840 1648 840 c 0xbfe0
 1627 840 1604 841 1580 844 c 1
 1495 791 1402 764 1302 764 c 0xdfe0
 1202 764 1109 791 1024 844 c 1
 1000 841 976 840 952 840 c 0
 843 840 749 879 672 956 c 0
 595 1033 556 1128 556 1240 c 0
 556 1347 593 1438 666 1514 c 0
 739 1590 829 1631 936 1636 c 1
 1037 1740 1159 1792 1302 1792 c 0
 1445 1792 1567 1740 1668 1636 c 1xbfe0
1648 968 m 0
 1723 968 1787 995 1840 1048 c 0
 1893 1101 1920 1165 1920 1240 c 0
 1920 1315 1893 1378 1840 1430 c 0
 1787 1482 1723 1508 1648 1508 c 2
 1612 1508 l 1
 1535 1612 1431 1664 1302 1664 c 0
 1173 1664 1069 1612 992 1508 c 1
 952 1508 l 2
 877 1508 814 1482 762 1430 c 0
 710 1378 684 1315 684 1240 c 0
 684 1165 710 1101 762 1048 c 0
 814 995 877 968 952 968 c 0xbfe0
 987 968 1019 973 1048 984 c 1
 1123 923 1207 892 1302 892 c 0xdfe0
 1397 892 1480 923 1552 984 c 1
 1584 973 1616 968 1648 968 c 0
576 892 m 2xdfe0
 613 892 640 865 640 830 c 0
 640 795 613 764 576 764 c 2
 64 764 l 2
 27 764 0 795 0 830 c 0
 0 865 27 892 64 892 c 2
 576 892 l 2xdfe0
64 1020 m 2
 27 1020 0 1051 0 1086 c 0
 0 1121 27 1148 64 1148 c 2
 320 1148 l 2
 357 1148 384 1121 384 1086 c 0
 384 1051 357 1020 320 1020 c 2
 64 1020 l 2
192 1276 m 2
 155 1276 128 1307 128 1342 c 0
 128 1377 155 1404 192 1404 c 2
 448 1404 l 2
 485 1404 512 1377 512 1342 c 0
 512 1307 485 1276 448 1276 c 2
 192 1276 l 2
896 384 m 0
 896 432 939 517 1024 640 c 1
 1056 592 l 2
 1077 560 1099 523 1120 480 c 0
 1141 437 1152 405 1152 384 c 0
 1152 349 1139 319 1114 294 c 0
 1089 269 1059 256 1024 256 c 0
 989 256 959 269 934 294 c 0
 909 319 896 349 896 384 c 0
1408 128 m 0
 1408 176 1451 261 1536 384 c 1
 1568 336 l 2
 1589 304 1611 267 1632 224 c 0
 1653 181 1664 149 1664 128 c 0
 1664 93 1651 63 1626 38 c 0
 1601 13 1571 0 1536 0 c 0
 1501 0 1471 13 1446 38 c 0
 1421 63 1408 93 1408 128 c 0
EndSplineSet
Validated: 1
EndChar

StartChar: uniEA22
Encoding: 59938 59938 73
Width: 2048
Flags: W
HStem: 640 128<814.73 1233.27> 768 128<285.701 606.842 1441.16 1762.3> 1536 128<285.701 530.726 1517.27 1762.3> 1792 128<813.857 1234.14>
VStem: 0 128<1053.7 1378.3> 952 144<-122.143 49.542 400.8 573.21> 1920 128<1053.7 1378.3>
CounterMasks: 1 0e
LayerCount: 2
Back
Fore
SplineSet
1304 144 m 2x3e
 1336 128 1349 80 1330 48 c 0
 1311 16 1269 3 1232 24 c 2
 1160 64 l 1
 1141 48 1120 36 1096 28 c 1
 1096 -56 l 2
 1096 -99 1061 -128 1024 -128 c 0
 987 -128 952 -99 952 -56 c 2
 952 28 l 1
 928 36 907 48 888 64 c 1
 816 24 l 2
 779 3 737 16 718 48 c 0
 699 80 712 128 744 144 c 2
 816 188 l 1
 811 215 811 237 816 264 c 1
 744 304 l 2
 712 325 699 367 718 402 c 0
 737 437 779 449 816 428 c 2
 888 384 l 1
 907 403 928 416 952 424 c 1
 952 508 l 2
 952 545 987 580 1024 580 c 0
 1061 580 1096 545 1096 508 c 2
 1096 424 l 1
 1120 416 1141 403 1160 384 c 1
 1232 428 l 2
 1269 449 1311 437 1330 402 c 0
 1349 367 1336 325 1304 304 c 2
 1232 264 l 1
 1237 237 1237 215 1232 188 c 1
 1304 144 l 2x3e
1072 176 m 0
 1104 203 1103 249 1074 276 c 0
 1045 303 1003 303 974 276 c 0
 945 249 945 203 974 176 c 0
 1003 149 1045 149 1072 176 c 0
1600 1664 m 0
 1723 1664 1828 1620 1916 1532 c 0
 2004 1444 2048 1339 2048 1216 c 0
 2048 1093 2004 988 1916 900 c 0
 1828 812 1723 768 1600 768 c 0x7e
 1544 768 1491 777 1440 796 c 1
 1320 692 1181 640 1024 640 c 0xbe
 867 640 728 692 608 796 c 1
 557 777 504 768 448 768 c 0x7e
 325 768 220 812 132 900 c 0
 44 988 0 1093 0 1216 c 0
 0 1339 44 1444 132 1532 c 0
 220 1620 325 1664 448 1664 c 0
 469 1664 491 1663 512 1660 c 1
 571 1743 645 1807 736 1852 c 0
 827 1897 923 1920 1024 1920 c 0
 1125 1920 1221 1897 1312 1852 c 0
 1403 1807 1477 1743 1536 1660 c 1
 1557 1663 1579 1664 1600 1664 c 0
1600 896 m 0
 1688 896 1763 927 1826 990 c 0
 1889 1053 1920 1128 1920 1216 c 0
 1920 1304 1889 1379 1826 1442 c 0
 1763 1505 1688 1536 1600 1536 c 0
 1557 1536 1517 1528 1480 1512 c 1
 1435 1597 1372 1665 1292 1716 c 0
 1212 1767 1123 1792 1024 1792 c 0
 925 1792 836 1767 756 1716 c 0
 676 1665 613 1597 568 1512 c 1
 531 1528 491 1536 448 1536 c 0
 360 1536 285 1505 222 1442 c 0
 159 1379 128 1304 128 1216 c 0
 128 1128 159 1053 222 990 c 0
 285 927 360 896 448 896 c 0x7e
 515 896 576 916 632 956 c 1
 736 831 867 768 1024 768 c 0xbe
 1181 768 1312 831 1416 956 c 1
 1472 916 1533 896 1600 896 c 0
EndSplineSet
Validated: 33
EndChar

StartChar: uniEA23
Encoding: 59939 59939 74
Width: 2048
Flags: W
HStem: 768 128<285.701 585.468 1462.53 1762.3> 792 164<545.838 600.76 1447.24 1502.16> 1536 128<285.701 530.726 1517.27 1762.3> 1792 128<813.857 1234.14>
VStem: 0 128<1053.7 1378.3> 952 144<261.857 433.542 784.8 957.21> 1920 128<1053.7 1378.3>
CounterMasks: 1 0e
LayerCount: 2
Back
Fore
SplineSet
1304 528 m 2xbe
 1336 512 1349 464 1330 432 c 0
 1311 400 1269 387 1232 408 c 2
 1160 448 l 1
 1141 432 1120 420 1096 412 c 1
 1096 328 l 2
 1096 285 1061 256 1024 256 c 0
 987 256 952 285 952 328 c 2
 952 412 l 1
 928 420 907 432 888 448 c 1
 816 408 l 2
 779 387 737 400 718 432 c 0
 699 464 712 512 744 528 c 2
 816 572 l 1
 811 599 811 621 816 648 c 1
 744 688 l 2
 712 709 699 751 718 786 c 0
 737 821 779 833 816 812 c 2
 888 768 l 1
 907 787 928 800 952 808 c 1
 952 892 l 2
 952 929 987 964 1024 964 c 0
 1061 964 1096 929 1096 892 c 2
 1096 808 l 1
 1120 800 1141 787 1160 768 c 1
 1232 812 l 2
 1269 833 1311 821 1330 786 c 0
 1349 751 1336 709 1304 688 c 2
 1232 648 l 1
 1237 621 1237 599 1232 572 c 1
 1304 528 l 2xbe
1072 560 m 0
 1104 587 1103 633 1074 660 c 0
 1045 687 1003 687 974 660 c 0
 945 633 945 587 974 560 c 0
 1003 533 1045 533 1072 560 c 0
1600 1664 m 0
 1723 1664 1828 1620 1916 1532 c 0
 2004 1444 2048 1339 2048 1216 c 0
 2048 1093 2004 988 1916 900 c 0
 1828 812 1723 768 1600 768 c 0xbe
 1555 768 1509 776 1464 792 c 1
 1459 813 1451 832 1440 848 c 0
 1427 875 1405 897 1376 916 c 1
 1384 924 1410 944 1416 956 c 1x7e
 1472 916 1533 896 1600 896 c 0
 1688 896 1763 927 1826 990 c 0
 1889 1053 1920 1128 1920 1216 c 0
 1920 1304 1889 1379 1826 1442 c 0
 1763 1505 1688 1536 1600 1536 c 0
 1557 1536 1517 1528 1480 1512 c 1
 1435 1597 1372 1665 1292 1716 c 0
 1212 1767 1123 1792 1024 1792 c 0
 925 1792 836 1767 756 1716 c 0
 676 1665 613 1597 568 1512 c 1
 531 1528 491 1536 448 1536 c 0
 360 1536 285 1505 222 1442 c 0
 159 1379 128 1304 128 1216 c 0
 128 1128 159 1053 222 990 c 0
 285 927 360 896 448 896 c 0xbe
 515 896 576 916 632 956 c 1
 632 953 645 940 672 916 c 1
 643 897 621 875 608 848 c 0
 597 832 589 813 584 792 c 1x7e
 539 776 493 768 448 768 c 0
 325 768 220 812 132 900 c 0
 44 988 0 1093 0 1216 c 0
 0 1339 44 1444 132 1532 c 0
 220 1620 325 1664 448 1664 c 0
 469 1664 491 1663 512 1660 c 1
 571 1743 645 1807 736 1852 c 0
 827 1897 923 1920 1024 1920 c 0
 1125 1920 1221 1897 1312 1852 c 0
 1403 1807 1477 1743 1536 1660 c 1
 1557 1663 1579 1664 1600 1664 c 0
EndSplineSet
Validated: 33
EndChar

StartChar: uniEA24
Encoding: 59940 59940 75
Width: 2048
Flags: W
HStem: 640 128<814.73 1233.27> 768 128<285.701 606.842 1441.16 1762.3> 1536 128<285.701 530.726 1517.27 1762.3> 1792 128<813.857 1234.14>
VStem: 0 128<1053.7 1378.3> 952 144<-122.143 49.542 400.8 573.21> 1920 128<1053.7 1378.3>
CounterMasks: 1 0e
LayerCount: 2
Back
Fore
SplineSet
1304 144 m 2x3e
 1336 128 1349 80 1330 48 c 0
 1311 16 1269 3 1232 24 c 2
 1160 64 l 1
 1141 48 1120 36 1096 28 c 1
 1096 -56 l 2
 1096 -99 1061 -128 1024 -128 c 0
 987 -128 952 -99 952 -56 c 2
 952 28 l 1
 928 36 907 48 888 64 c 1
 816 24 l 2
 779 3 737 16 718 48 c 0
 699 80 712 128 744 144 c 2
 816 188 l 1
 811 215 811 237 816 264 c 1
 744 304 l 2
 712 325 699 367 718 402 c 0
 737 437 779 449 816 428 c 2
 888 384 l 1
 907 403 928 416 952 424 c 1
 952 508 l 2
 952 545 987 580 1024 580 c 0
 1061 580 1096 545 1096 508 c 2
 1096 424 l 1
 1120 416 1141 403 1160 384 c 1
 1232 428 l 2
 1269 449 1311 437 1330 402 c 0
 1349 367 1336 325 1304 304 c 2
 1232 264 l 1
 1237 237 1237 215 1232 188 c 1
 1304 144 l 2x3e
1072 176 m 0
 1104 203 1103 249 1074 276 c 0
 1045 303 1003 303 974 276 c 0
 945 249 945 203 974 176 c 0
 1003 149 1045 149 1072 176 c 0
1896 336 m 2
 1923 328 1933 311 1926 284 c 0
 1919 257 1903 247 1876 252 c 2
 1828 268 l 1
 1817 252 1807 241 1796 236 c 1
 1808 188 l 2
 1816 159 1806 141 1778 134 c 0
 1750 127 1733 137 1728 164 c 2
 1712 212 l 1
 1696 215 1681 219 1668 224 c 1
 1636 188 l 2
 1615 169 1594 170 1574 190 c 0
 1554 210 1555 229 1576 248 c 2
 1612 284 l 1
 1604 297 1600 312 1600 328 c 1
 1552 340 l 2
 1523 348 1512 365 1520 392 c 0
 1528 419 1545 428 1572 420 c 2
 1620 408 l 1
 1625 416 1631 423 1636 428 c 0
 1641 433 1647 437 1652 440 c 1
 1640 488 l 2
 1632 515 1641 532 1668 540 c 0
 1695 548 1712 539 1720 512 c 2
 1732 464 l 1
 1748 461 1763 457 1776 452 c 1
 1812 488 l 2
 1833 507 1853 506 1872 486 c 0
 1891 466 1891 447 1872 428 c 2
 1836 392 l 1
 1844 379 1848 364 1848 348 c 1
 1896 336 l 2
1752 364 m 0
 1733 385 1714 386 1694 366 c 0
 1674 346 1674 327 1694 308 c 0
 1714 289 1734 289 1754 308 c 0
 1774 327 1773 345 1752 364 c 0
476 552 m 2
 503 557 520 547 528 520 c 0
 536 493 525 476 496 468 c 2
 448 456 l 1
 448 440 444 425 436 412 c 1
 472 376 l 2
 493 357 494 338 474 318 c 0
 454 298 433 297 412 316 c 2
 380 352 l 1
 364 347 349 343 336 340 c 1
 320 292 l 2
 315 265 298 255 270 262 c 0
 242 269 232 287 240 316 c 2
 252 364 l 1
 241 369 231 380 220 396 c 1
 172 380 l 2
 145 375 129 385 122 412 c 0
 115 439 125 456 152 464 c 2
 200 476 l 1
 200 492 204 507 212 520 c 1
 176 556 l 2
 157 575 157 594 176 614 c 0
 195 634 215 635 236 616 c 2
 272 580 l 1
 285 585 300 589 316 592 c 1
 328 640 l 2xbe
 336 667 353 676 380 668 c 0
 407 660 416 643 408 616 c 2
 396 568 l 1
 401 565 407 561 412 556 c 0
 417 551 423 544 428 536 c 1
 476 552 l 2
352 492 m 0
 333 513 314 514 294 494 c 0
 274 474 274 455 294 436 c 0
 314 417 334 417 354 436 c 0
 374 455 373 473 352 492 c 0
1600 1664 m 0
 1723 1664 1828 1620 1916 1532 c 0
 2004 1444 2048 1339 2048 1216 c 0
 2048 1093 2004 988 1916 900 c 0
 1828 812 1723 768 1600 768 c 0x7e
 1544 768 1491 777 1440 796 c 1
 1320 692 1181 640 1024 640 c 0xbe
 867 640 728 692 608 796 c 1
 557 777 504 768 448 768 c 0x7e
 325 768 220 812 132 900 c 0
 44 988 0 1093 0 1216 c 0
 0 1339 44 1444 132 1532 c 0
 220 1620 325 1664 448 1664 c 0
 469 1664 491 1663 512 1660 c 1
 571 1743 645 1807 736 1852 c 0
 827 1897 923 1920 1024 1920 c 0
 1125 1920 1221 1897 1312 1852 c 0
 1403 1807 1477 1743 1536 1660 c 1
 1557 1663 1579 1664 1600 1664 c 0
1416 956 m 1
 1472 916 1533 896 1600 896 c 0
 1688 896 1763 927 1826 990 c 0
 1889 1053 1920 1128 1920 1216 c 0
 1920 1304 1889 1379 1826 1442 c 0
 1763 1505 1688 1536 1600 1536 c 0
 1557 1536 1517 1528 1480 1512 c 1
 1435 1597 1372 1665 1292 1716 c 0
 1212 1767 1123 1792 1024 1792 c 0
 925 1792 836 1767 756 1716 c 0
 676 1665 613 1597 568 1512 c 1
 531 1528 491 1536 448 1536 c 0
 360 1536 285 1505 222 1442 c 0
 159 1379 128 1304 128 1216 c 0
 128 1128 159 1053 222 990 c 0
 285 927 360 896 448 896 c 0x7e
 515 896 576 916 632 956 c 1
 736 831 867 768 1024 768 c 0xbe
 1181 768 1312 831 1416 956 c 1
EndSplineSet
Validated: 33
EndChar

StartChar: uniEA25
Encoding: 59941 59941 76
Width: 2048
Flags: W
HStem: -128 256<544.361 732.309 1312.36 1500.31> 256 256<928.361 1116.31> 384 256<288.361 476.309 1568.36 1756.31> 640 128<815.773 1232.23> 768 128<285.701 614.866 1433.13 1762.3> 1536 128<285.701 530.601 1517.4 1762.3> 1792 128<811.34 1236.66>
VStem: 0 128<1053.7 1378.3> 256 256<416.361 604.309> 512 256<-95.6392 92.3086> 896 256<288.361 476.309> 1280 256<-95.6392 92.3086> 1536 256<416.361 604.309> 1920 128<1053.7 1378.3>
LayerCount: 2
Back
Fore
SplineSet
1600 1664 m 0x8f6c
 1723 1664 1828 1620 1916 1532 c 0
 2004 1444 2048 1339 2048 1216 c 0
 2048 1093 2004 988 1916 900 c 0
 1828 812 1723 768 1600 768 c 0x8f6c
 1544 768 1491 777 1440 796 c 1
 1320 692 1181 640 1024 640 c 0x976c
 867 640 728 692 608 796 c 1
 557 777 504 768 448 768 c 0
 325 768 220 812 132 900 c 0
 44 988 0 1093 0 1216 c 0
 0 1339 44 1444 132 1532 c 0
 220 1620 325 1664 448 1664 c 0
 469 1664 491 1663 512 1660 c 1
 571 1743 645 1807 736 1852 c 0
 827 1897 923 1920 1024 1920 c 0
 1125 1920 1221 1897 1312 1852 c 0
 1403 1807 1477 1743 1536 1660 c 1
 1557 1663 1579 1664 1600 1664 c 0x8f6c
1600 896 m 0
 1688 896 1763 927 1826 990 c 0
 1889 1053 1920 1128 1920 1216 c 0
 1920 1304 1889 1379 1826 1442 c 0
 1763 1505 1688 1536 1600 1536 c 0
 1584 1536 1569 1535 1556 1532 c 2
 1480 1520 l 1
 1432 1584 l 2
 1331 1723 1195 1792 1024 1792 c 0
 853 1792 717 1723 616 1584 c 2
 568 1520 l 1
 492 1532 l 2
 479 1535 464 1536 448 1536 c 0
 360 1536 285 1505 222 1442 c 0
 159 1379 128 1304 128 1216 c 0
 128 1128 159 1053 222 990 c 0
 285 927 360 896 448 896 c 0x8f24
 488 896 525 903 560 916 c 2
 632 944 l 1
 692 892 l 2
 788 809 899 768 1024 768 c 0x9724
 1149 768 1260 809 1356 892 c 2
 1416 944 l 1
 1488 916 l 2
 1523 903 1560 896 1600 896 c 0
472 600 m 1
 499 576 512 547 512 512 c 0xc7a4
 512 477 499 447 474 422 c 0
 449 397 419 384 384 384 c 0xa7a4
 349 384 319 397 294 422 c 0
 269 447 256 477 256 512 c 0xc7a4
 256 547 269 577 294 602 c 0
 319 627 349 640 384 640 c 0xa7a4
 419 640 448 627 472 600 c 1
1112 472 m 1
 1139 448 1152 419 1152 384 c 0xa724
 1152 349 1139 319 1114 294 c 0
 1089 269 1059 256 1024 256 c 0xc724
 989 256 959 269 934 294 c 0
 909 319 896 349 896 384 c 0xa724
 896 419 909 449 934 474 c 0
 959 499 989 512 1024 512 c 0
 1059 512 1088 499 1112 472 c 1
1752 600 m 1
 1779 576 1792 547 1792 512 c 0xc72c
 1792 477 1779 447 1754 422 c 0
 1729 397 1699 384 1664 384 c 0xa72c
 1629 384 1599 397 1574 422 c 0
 1549 447 1536 477 1536 512 c 0xc72c
 1536 547 1549 577 1574 602 c 0
 1599 627 1629 640 1664 640 c 0
 1699 640 1728 627 1752 600 c 1
1496 88 m 1
 1523 64 1536 35 1536 0 c 0
 1536 -35 1523 -65 1498 -90 c 0
 1473 -115 1443 -128 1408 -128 c 0
 1373 -128 1343 -115 1318 -90 c 0
 1293 -65 1280 -35 1280 0 c 0x8734
 1280 35 1293 65 1318 90 c 0
 1343 115 1373 128 1408 128 c 0
 1443 128 1472 115 1496 88 c 1
728 88 m 1
 755 64 768 35 768 0 c 0
 768 -35 755 -65 730 -90 c 0
 705 -115 675 -128 640 -128 c 0
 605 -128 575 -115 550 -90 c 0
 525 -65 512 -35 512 0 c 0x8764
 512 35 525 65 550 90 c 0
 575 115 605 128 640 128 c 0
 675 128 704 115 728 88 c 1
EndSplineSet
Validated: 1
EndChar

StartChar: uniEA26
Encoding: 59942 59942 77
Width: 2048
Flags: W
HStem: -128 128<814.73 1233.27> 0 128<285.701 606.842 1441.16 1762.3> 768 128<285.701 519.57 1498.17 1758.48> 1024 128<816.539 1234.14> 1188 128<734.698 934.484 1625.52 1828.2> 1372 128<1108.41 1451.59>
VStem: 0 128<285.701 610.299> 1920 128<285.701 608.524 823.631 1096.72>
LayerCount: 2
Back
Fore
SplineSet
2048 960 m 0x7f
 2048 869 2016 789 1952 720 c 1
 2016 637 2048 547 2048 448 c 0
 2048 325 2004 220 1916 132 c 0
 1828 44 1723 0 1600 0 c 0x7f
 1544 0 1491 9 1440 28 c 1
 1320 -76 1181 -128 1024 -128 c 0xbf
 867 -128 728 -76 608 28 c 1
 557 9 504 0 448 0 c 0
 325 0 220 44 132 132 c 0
 44 220 0 325 0 448 c 0
 0 571 44 676 132 764 c 0
 220 852 325 896 448 896 c 0
 469 896 491 895 512 892 c 1
 512 892 515 900 520 900 c 1
 515 924 512 944 512 960 c 0
 512 1059 547 1143 616 1212 c 0
 685 1281 769 1316 868 1316 c 2
 896 1316 l 1
 995 1439 1123 1500 1280 1500 c 0
 1437 1500 1565 1439 1664 1316 c 1
 1692 1316 l 2
 1791 1316 1875 1281 1944 1212 c 0
 2013 1143 2048 1059 2048 960 c 0x7f
1600 128 m 0
 1688 128 1763 159 1826 222 c 0
 1889 285 1920 360 1920 448 c 0
 1920 520 1897 585 1852 644 c 0
 1788 724 1691 768 1600 768 c 1
 1548 764 l 2
 1521 759 1499 752 1480 744 c 1
 1435 829 1372 897 1292 948 c 0
 1212 999 1123 1024 1024 1024 c 0
 883 1024 761 972 660 868 c 0
 628 833 600 796 576 756 c 0
 576 751 573 744 568 744 c 0
 531 760 491 768 448 768 c 0
 360 768 285 737 222 674 c 0
 159 611 128 536 128 448 c 0
 128 360 159 285 222 222 c 0
 285 159 360 128 448 128 c 0x7f
 515 128 576 148 632 188 c 1
 736 63 867 0 1024 0 c 0xbf
 1181 0 1312 63 1416 188 c 1
 1472 148 1533 128 1600 128 c 0
1864 808 m 1
 1901 853 1920 904 1920 960 c 0
 1920 1024 1898 1078 1854 1122 c 0
 1810 1166 1756 1188 1692 1188 c 0
 1663 1188 1633 1183 1604 1172 c 1
 1575 1231 1531 1279 1472 1316 c 0
 1413 1353 1349 1372 1280 1372 c 0
 1211 1372 1147 1353 1088 1316 c 0
 1029 1279 985 1231 956 1172 c 1
 927 1183 897 1188 868 1188 c 0
 817 1188 773 1173 734 1144 c 0
 695 1115 668 1077 652 1032 c 1
 764 1112 888 1152 1024 1152 c 0
 1125 1152 1221 1129 1312 1084 c 0
 1403 1039 1477 975 1536 892 c 1
 1557 895 1579 896 1600 896 c 0
 1696 896 1784 867 1864 808 c 1
EndSplineSet
Validated: 1
EndChar

StartChar: uniEA27
Encoding: 59943 59943 78
Width: 2048
Flags: W
HStem: 420 128<285.701 606.842 1441.16 1762.3> 1188 128<285.701 519.57 1498.17 1758.48> 1444 128<816.539 1234.14> 1608 128<734.698 934.484 1625.52 1828.2> 1792 128<1107.01 1452.99>
VStem: 0 128<705.701 1030.3> 1920 128<705.701 1029.47 1247.17 1516.72>
LayerCount: 2
Back
Fore
SplineSet
2048 1380 m 0
 2048 1289 2016 1209 1952 1140 c 1
 2016 1060 2048 969 2048 868 c 0
 2048 745 2004 640 1916 552 c 0
 1828 464 1723 420 1600 420 c 0
 1544 420 1491 429 1440 448 c 1
 1328 349 1196 299 1044 296 c 1
 1024 256 l 1
 1152 128 l 1
 768 -128 l 1
 896 128 l 1
 768 256 l 1
 860 316 l 1
 761 343 677 387 608 448 c 1
 557 429 504 420 448 420 c 0
 325 420 220 464 132 552 c 0
 44 640 0 745 0 868 c 0
 0 991 44 1096 132 1184 c 0
 220 1272 325 1316 448 1316 c 0
 469 1316 491 1315 512 1312 c 1
 512 1312 515 1320 520 1320 c 1
 515 1344 512 1364 512 1380 c 0
 512 1479 547 1563 616 1632 c 0
 685 1701 769 1736 868 1736 c 2
 896 1736 l 1
 995 1859 1123 1920 1280 1920 c 0
 1437 1920 1565 1859 1664 1736 c 1
 1692 1736 l 2
 1791 1736 1875 1701 1944 1632 c 0
 2013 1563 2048 1479 2048 1380 c 0
1600 548 m 0
 1688 548 1763 579 1826 642 c 0
 1889 705 1920 780 1920 868 c 0
 1920 940 1897 1005 1852 1064 c 0
 1788 1144 1691 1188 1600 1188 c 1
 1548 1184 l 2
 1521 1179 1499 1172 1480 1164 c 1
 1435 1249 1372 1317 1292 1368 c 0
 1212 1419 1123 1444 1024 1444 c 0
 883 1444 761 1392 660 1288 c 0
 628 1256 600 1219 576 1176 c 2
 576 1176 573 1169 568 1164 c 1
 531 1180 491 1188 448 1188 c 0
 360 1188 285 1157 222 1094 c 0
 159 1031 128 956 128 868 c 0
 128 780 159 705 222 642 c 0
 285 579 360 548 448 548 c 0
 515 548 576 568 632 608 c 1
 733 485 861 423 1016 420 c 1
 1112 432 l 1
 1235 453 1336 512 1416 608 c 1
 1472 568 1533 548 1600 548 c 0
1864 1232 m 1
 1901 1275 1920 1324 1920 1380 c 0
 1920 1444 1898 1498 1854 1542 c 0
 1810 1586 1756 1608 1692 1608 c 0
 1663 1608 1633 1603 1604 1592 c 1
 1575 1653 1531 1702 1472 1738 c 0
 1413 1774 1349 1792 1280 1792 c 0
 1211 1792 1147 1774 1088 1738 c 0
 1029 1702 985 1653 956 1592 c 1
 927 1603 897 1608 868 1608 c 0
 817 1608 773 1593 734 1564 c 0
 695 1535 668 1497 652 1452 c 1
 764 1532 888 1572 1024 1572 c 0
 1125 1572 1221 1549 1312 1504 c 0
 1403 1459 1477 1395 1536 1312 c 1
 1557 1315 1579 1316 1600 1316 c 0
 1696 1316 1784 1288 1864 1232 c 1
EndSplineSet
Validated: 1
EndChar

StartChar: uniE9FD
Encoding: 59901 59901 79
Width: 2048
VWidth: 0
HStem: -490 60.292<1111.25 1356.72> 0.299805 67.0117<669.59 937.858> 27.5518 67.0645<405.367 566.13> 80.8398 67.1357<1604.87 1817.38> 205.184 93.0762<1565.88 1623.52> 341.936 64.2646<1765.88 1950.44> 937.26 23.0244<1475.4 1555.04> 1472.01 60.3486<896.97 1210.8> 1493.65 60.3438<1243.44 1650.46>
VStem: 33.9883 63.5957<798.327 1236.52> 154.34 458.9<740.656 1170.95> 941.936 50.6807<-255.055 24.0645> 1051.36 455.792<-147.169 327.784>
LayerCount: 2
Back
Fore
SplineSet
1601.05566406 880.01953125 m 4x8e78
 1596.65234375 851.360351562 1592.08398438 821.719726562 1590.94433594 785.744140625 c 4
 1589.79589844 750.740234375 1594.18359375 714.34375 1598.41210938 679.1484375 c 4
 1606.94824219 608.059570312 1615.70800781 534.875976562 1581.75976562 462.65234375 c 5
 1576.5 472.024414062 1571.40429688 482.240234375 1566.74023438 493.564453125 c 4
 1562.52832031 503.795898438 1553.36425781 520.219726562 1540.68359375 542.952148438 c 4
 1491.34375 631.435546875 1375.79199219 838.643554688 1434.95605469 923.196289062 c 4
 1465.36816406 966.66796875 1542.39160156 968.543945312 1609.51171875 960.284179688 c 5
 1609.02832031 932.1796875 1605.16796875 906.6640625 1601.05566406 880.01953125 c 4x8e78
1544.52441406 896.467773438 m 4
 1552.87988281 905.232421875 1557.68847656 914.9921875 1556.80371094 921.33984375 c 4
 1555.43164062 931.15625 1541.79980469 937.259765625 1521.22363281 937.259765625 c 4
 1516.25585938 937.259765625 1511.07617188 936.891601562 1505.86425781 936.16796875 c 4
 1482.05175781 932.8515625 1458.98046875 922.095703125 1460.88378906 907.956054688 c 4
 1462.54394531 896.236328125 1482.53613281 878.15625 1505.70410156 878.15625 c 4
 1507.75195312 878.15625 1509.81640625 878.299804688 1511.8359375 878.580078125 c 4
 1527.55175781 880.759765625 1539.07226562 890.723632812 1544.52441406 896.467773438 c 4
1308.15625 1421.15625 m 5
 1350.55957031 1429.94042969 1408.54394531 1438.13574219 1473.46777344 1436.71191406 c 4
 1637.96777344 1433.07226562 1768.07226562 1371.53613281 1860.20019531 1253.81152344 c 4
 1930.86816406 1163.51953125 1853.07226562 752.6484375 1627.80371094 398.200195312 c 5
 1625.59179688 401.024414062 1623.3203125 403.879882812 1620.98046875 406.799804688 c 4
 1620.04785156 407.975585938 1619.09179688 409.171875 1618.12402344 410.379882812 c 4
 1676.3359375 506.5078125 1664.94433594 601.603515625 1654.81640625 685.927734375 c 4
 1650.65234375 720.536132812 1646.73242188 753.223632812 1647.73242188 783.919921875 c 4
 1648.76757812 816.48046875 1653.07226562 844.379882812 1657.23632812 871.372070312 c 4
 1662.34765625 904.624023438 1667.55957031 939.032226562 1666.11230469 979.591796875 c 4
 1667.19238281 983.84375 1667.62792969 988.868164062 1667.05957031 994.83984375 c 4
 1663.40039062 1033.75195312 1618.98046875 1150.15625 1528.45605469 1255.53613281 c 4
 1478.95214844 1313.1640625 1406.74023438 1377.65234375 1308.15625 1421.15625 c 5
685.311523438 387.112304688 m 4
 691.772460938 380.368164062 698.515625 374.043945312 705.48828125 368.076171875 c 5
 677.696289062 338.32421875 617.295898438 272.51171875 553.01171875 195.1796875 c 4
 507.524414062 140.484375 476.108398438 150.940429688 465.776367188 154.396484375 c 4
 398.463867188 176.8515625 320.360351562 319.124023438 251.5 544.744140625 c 4
 191.916015625 739.952148438 157.087890625 936.244140625 154.33984375 991.295898438 c 4
 145.635742188 1165.37597656 187.83203125 1286.70410156 279.763671875 1351.90039062 c 4
 429.364257812 1458.00390625 675.3515625 1394.4921875 774.192382812 1362.28027344 c 5
 772.763671875 1360.88378906 771.291992188 1359.57226562 769.891601562 1358.15234375 c 4
 607.696289062 1194.34375 611.543945312 914.48046875 611.948242188 897.379882812 c 4
 611.923828125 890.784179688 612.48046875 881.444335938 613.240234375 868.583984375 c 4
 616.028320312 821.51953125 621.223632812 733.912109375 607.34765625 634.692382812 c 4
 594.459960938 542.49609375 622.872070312 452.263671875 685.311523438 387.112304688 c 4
1591.73242188 351.68359375 m 5
 1559.59179688 342.408203125 1501.89648438 321.015625 1507.15625 214.064453125 c 4
 1502.92773438 160.435546875 1472.75585938 -90.8076171875 1457.44433594 -179.608398438 c 4
 1437.22753906 -296.904296875 1394.05175781 -340.591796875 1272.72363281 -366.603515625 c 4
 1146.89648438 -393.576171875 1102.37988281 -329.364257812 1073.015625 -255.98828125 c 4
 1054.07617188 -208.599609375 1044.78027344 5.0283203125 1051.36425781 240.940429688 c 4
 1051.45996094 244.068359375 1051.0078125 247.103515625 1050.13574219 249.944335938 c 4
 1049.39160156 255.444335938 1048.23242188 261.01171875 1046.62011719 266.624023438 c 4
 1036.81152344 300.959960938 1012.86816406 329.66015625 984.15234375 341.568359375 c 4
 975.1640625 345.295898438 961.576171875 350.908203125 944.864257812 350.908203125 c 4
 938.692382812 350.908203125 932.616210938 350.135742188 926.631835938 348.583984375 c 5
 932.00390625 370.688476562 941.307617188 395.631835938 951.387695312 422.66015625 c 6
 955.624023438 434.032226562 l 6
 960.383789062 446.860351562 966.372070312 460.135742188 972.696289062 474.208007812 c 4
 1006.87597656 550.131835938 1053.68847656 654.143554688 1002.88378906 889.103515625 c 4
 983.8515625 977.108398438 920.295898438 1020.08007812 823.971679688 1010.10351562 c 4
 766.211914062 1004.12402344 713.383789062 980.8203125 687.028320312 967.459960938 c 4
 681.33984375 964.580078125 676.120117188 961.791992188 671.263671875 959.080078125 c 5
 678.532226562 1047.62402344 706.204101562 1213.06835938 810.267578125 1318.171875 c 4
 875.732421875 1384.29589844 962.919921875 1416.95214844 1069.25976562 1415.19628906 c 4
 1278.515625 1411.75976562 1412.70410156 1304.37207031 1488.44042969 1214.88378906 c 4
 1553.70019531 1137.76367188 1589.03222656 1060.08789062 1603.13574219 1018.19238281 c 5
 1497.12011719 1028.97558594 1424.95214844 1008.03613281 1388.39160156 955.763671875 c 4
 1308.83203125 842.047851562 1431.90429688 621.3515625 1491.05175781 515.280273438 c 4
 1501.89160156 495.83203125 1511.26757812 479.047851562 1514.20410156 471.900390625 c 4
 1533.45214844 425.223632812 1558.39648438 394.055664062 1576.62402344 371.307617188 c 4
 1582.19628906 364.33203125 1587.59960938 357.559570312 1591.73242188 351.68359375 c 5
992.01171875 250.9921875 m 4
 994.3359375 242.84375 996.963867188 227.387695312 988.383789062 215.383789062 c 4
 945.15234375 154.84765625 885.639648438 124.143554688 811.50390625 124.143554688 c 4
 787.124023438 124.143554688 761.240234375 127.536132812 734.543945312 134.215820312 c 4
 718.927734375 138.120117188 704.883789062 144.896484375 696.635742188 150.5078125 c 5
 703.51953125 153.755859375 715.772460938 158.15625 737.01953125 162.528320312 c 4
 839.860351562 183.715820312 855.736328125 198.65234375 890.416015625 242.68359375 c 4
 898.372070312 252.780273438 907.391601562 264.223632812 919.883789062 278.1796875 c 4
 929.31640625 288.732421875 937.723632812 294.087890625 944.868164062 294.087890625 c 4
 949.879882812 294.087890625 955.532226562 291.927734375 962.400390625 289.087890625 c 4
 974.896484375 283.891601562 987.076171875 268.240234375 992.01171875 250.9921875 c 4
1877.43164062 286.276367188 m 4
 1877.86425781 286.372070312 1878.30371094 286.471679688 1878.71972656 286.547851562 c 5
 1862.97167969 271.81640625 1836.04394531 252.072265625 1797.82421875 234.3203125 c 4
 1764.97167969 219.072265625 1710.01953125 207.635742188 1657.79589844 205.18359375 c 4
 1600.11621094 202.50390625 1570.75195312 211.635742188 1563.84765625 217.284179688 c 4
 1560.62011719 283.916015625 1585.43164062 290.883789062 1611.68359375 298.259765625 c 4
 1615.79589844 299.419921875 1619.83203125 300.547851562 1623.70410156 301.904296875 c 4
 1626.12402344 299.952148438 1628.77246094 297.98828125 1631.67578125 296.080078125 c 4
 1678.03222656 265.48046875 1760.71972656 262.188476562 1877.43164062 286.276367188 c 4
898.143554688 442.51953125 m 6
 887.49609375 413.927734375 877.583984375 387.375976562 871.431640625 362.143554688 c 5
 817.940429688 362.303710938 765.912109375 385.15234375 726.33203125 426.452148438 c 4
 676.01953125 478.935546875 653.1640625 551.975585938 663.627929688 626.82421875 c 4
 678.284179688 731.639648438 672.872070312 822.916015625 669.959960938 871.948242188 c 4
 669.559570312 878.803710938 669.204101562 884.8203125 668.984375 889.564453125 c 4
 692.67578125 910.572265625 802.484375 969.404296875 880.784179688 951.463867188 c 4
 916.51953125 943.276367188 938.291992188 918.956054688 947.3515625 877.099609375 c 4
 994.200195312 660.412109375 953.547851562 570.095703125 920.896484375 497.536132812 c 4
 914.15625 482.564453125 907.791992188 468.444335938 902.364257812 453.811523438 c 6
 898.143554688 442.51953125 l 6
824.423828125 880.232421875 m 4
 834.799804688 866.475585938 849.967773438 857.01953125 864.975585938 854.948242188 c 4
 867.208007812 854.631835938 869.5 854.471679688 871.767578125 854.471679688 c 4
 897.723632812 854.471679688 919.3359375 874.711914062 921.232421875 888.360351562 c 4
 923.751953125 906.375976562 897.595703125 918.379882812 872.251953125 921.904296875 c 4
 866.811523438 922.6640625 861.423828125 923.051757812 856.219726562 923.051757812 c 4
 832.740234375 923.051757812 817.700195312 915.555664062 815.98828125 903.059570312 c 4
 814.780273438 894.532226562 820.755859375 885.095703125 824.423828125 880.232421875 c 4
2012.73242188 323.091796875 m 4
 2035.99609375 217.740234375 1892.88769531 142.295898438 1848.4921875 121.671875 c 4
 1795.05175781 96.8603515625 1712.28808594 80.83984375 1637.59960938 80.83984375 c 4
 1630.27636719 80.83984375 1623 80.984375 1615.96777344 81.3037109375 c 6
 1604.86816406 82.2119140625 l 5
 1602.55957031 62.5283203125 l 5
 1597.3203125 -137.50390625 1568.38769531 -264.576171875 1508.74414062 -349.50390625 c 4
 1445.12402344 -440.080078125 1357.66015625 -465.284179688 1280.66796875 -481.772460938 c 4
 1255.19628906 -487.244140625 1230.68847656 -490 1207.80761719 -490 c 4
 1136.171875 -490 1075.95996094 -462.99609375 1033.70800781 -411.912109375 c 4
 1001.65625 -373.15625 987.723632812 -330.467773438 978.50390625 -302.200195312 c 4
 976.887695312 -297.263671875 975.404296875 -292.700195312 974.291992188 -289.711914062 c 4
 953.196289062 -232.759765625 946.095703125 -151.9921875 941.935546875 -48.1884765625 c 4
 941.3203125 -32.919921875 940.868164062 -16.591796875 940.400390625 0.0556640625 c 4
 940.200195312 7.3798828125 939.963867188 15.49609375 939.708007812 24.064453125 c 5
 900.295898438 8.2880859375 857.211914062 0.2998046875 811.463867188 0.2998046875 c 4xdef8
 777.232421875 0.2998046875 741.5078125 4.896484375 705.276367188 13.9638671875 c 4
 679.736328125 20.3564453125 633.295898438 36.099609375 601.299804688 70.9677734375 c 5
 564.811523438 42.15234375 525.223632812 27.5517578125 483.5078125 27.5517578125 c 4
 350.272460938 27.5517578125 242.744140625 170.564453125 145.127929688 477.66015625 c 4
 81.9443359375 676.408203125 37.8115234375 905.288085938 33.98828125 981.883789062 c 4
 24.84765625 1164.54394531 65.5400390625 1304.80371094 154.919921875 1398.77246094 c 4
 235.6484375 1483.6484375 350.580078125 1526.67578125 496.50390625 1526.67578125 c 4
 626.236328125 1526.67578125 750.791992188 1491.69238281 815.311523438 1470.08789062 c 5
 886.15625 1511.40820312 968.811523438 1532.35644531 1061.04785156 1532.35644531 c 4xaf78
 1064.42382812 1532.35644531 1067.81152344 1532.33203125 1071.23242188 1532.27636719 c 4
 1122.48828125 1531.44433594 1171.56835938 1526.98828125 1217.16015625 1519.03613281 c 4
 1246.07226562 1527.87597656 1341.55175781 1553.99609375 1458.46386719 1553.99609375 c 4x8ef8
 1665.90039062 1553.99609375 1837.59570312 1474.69628906 1955.00390625 1324.6640625 c 4
 2034.86816406 1222.60351562 2005.73242188 1023.42773438 1967.21972656 874.3203125 c 4
 1925.60839844 713.232421875 1853.86035156 541.099609375 1764.68847656 388.208007812 c 5
 1790.1484375 389.791992188 1819.76757812 394.051757812 1852.97167969 400.891601562 c 4
 1870.25585938 404.471679688 1885.484375 406.200195312 1899.53613281 406.200195312 c 4
 1969.55957031 406.200195312 2004.28027344 361.427734375 2012.73242188 323.091796875 c 4
1821.76757812 182.791992188 m 4
 1873.36816406 206.740234375 1966.45996094 265.564453125 1949.56835938 316.635742188 c 4
 1940.828125 343.064453125 1912.68359375 351.583984375 1865.93164062 341.935546875 c 4
 1727.13183594 313.280273438 1677.38769531 333.124023438 1661.05957031 345.127929688 c 5
 1768.96777344 509.536132812 1857.73632812 708.236328125 1905.62011719 893.639648438 c 4
 1928.6640625 982.772460938 1974.67578125 1199.71972656 1904.94433594 1288.8359375 c 4
 1801.60839844 1420.87988281 1649.94433594 1491.70019531 1466.35644531 1493.65234375 c 4xdef8
 1340.21972656 1495.04003906 1233.52832031 1462.76367188 1212.84375 1453.68847656 c 4
 1169.31152344 1464.51171875 1121.86425781 1471.16015625 1070.18359375 1472.0078125 c 4
 975.3359375 1473.5 893.528320312 1450.83984375 825.763671875 1404.63964844 c 5
 757.036132812 1430.39160156 441.984375 1536.46777344 247.0078125 1398.33203125 c 4
 138.112304688 1321.17578125 87.8359375 1183.28027344 97.583984375 988.452148438 c 4
 100.860351562 922.891601562 138.204101562 721.255859375 197.1484375 528.1484375 c 4
 274.723632812 273.98046875 359.059570312 130.091796875 447.788085938 100.5078125 c 4
 458.1796875 97.0322265625 470.16015625 94.599609375 483.360351562 94.6162109375 c 4xaf78
 515.732421875 94.6162109375 555.416015625 109.204101562 596.708007812 158.84765625 c 4
 665.288085938 241.356445312 729.33203125 310.4921875 752.927734375 335.612304688 c 5
 787.811523438 316.891601562 826.127929688 306.440429688 865.328125 305.387695312 c 4
 865.387695312 304.356445312 865.50390625 303.33984375 865.591796875 302.307617188 c 4
 857.723632812 292.98046875 851.272460938 284.81640625 845.780273438 277.83203125 c 4
 818.620117188 243.3515625 812.971679688 236.192382812 725.555664062 218.18359375 c 4
 700.692382812 213.055664062 634.635742188 199.435546875 633.6796875 153.1484375 c 4
 632.624023438 102.564453125 711.744140625 81.33203125 720.763671875 79.072265625 c 4
 751.952148438 71.263671875 782.48046875 67.3115234375 811.50390625 67.3115234375 c 4
 881.896484375 67.3115234375 943.48828125 90.564453125 992.616210938 135.028320312 c 5
 991.091796875 -45.2841796875 998.616210938 -222.952148438 1020.26757812 -277.095703125 c 4
 1037.9921875 -321.400390625 1081.29589844 -429.723632812 1218.14355469 -429.708007812 c 4
 1238.21582031 -429.692382812 1260.3203125 -427.368164062 1284.63183594 -422.171875 c 4
 1427.43554688 -391.547851562 1489.44042969 -328.431640625 1513.44824219 -189.291992188 c 4
 1526.27246094 -114.879882812 1548.29589844 62.6884765625 1558.65625 157.912109375 c 5
 1580.53613281 151.103515625 1608.68847656 147.975585938 1639.13183594 147.975585938 c 4
 1702.60351562 147.975585938 1775.8203125 161.463867188 1821.76757812 182.791992188 c 4
EndSplineSet
Validated: 33
EndChar

StartChar: block
Encoding: 9608 9608 80
Width: 1230
Flags: W
VStem: 96 1147<-496 1636>
LayerCount: 2
Back
Fore
SplineSet
94 1636 m 1
 1241 1636 l 1
 1243 -496 l 5
 96 -496 l 5
 94 1636 l 1
1243 -496 m 1029
EndSplineSet
EndChar

StartChar: SF110000
Encoding: 9474 9474 81
Width: 1233
Flags: WO
VStem: 536 160<-618 1992>
LayerCount: 2
Back
Fore
SplineSet
536 -618 m 5
 536 1992 l 5
 696 1992 l 5
 696 -618 l 5
 536 -618 l 5
EndSplineSet
EndChar
